<?xml version="1.0" encoding="utf-8" standalone="no"?>
<!DOCTYPE svg PUBLIC "-//W3C//DTD SVG 1.1//EN"
  "http://www.w3.org/Graphics/SVG/1.1/DTD/svg11.dtd">
<!-- Created with matplotlib (http://matplotlib.org/) -->
<svg height="648pt" version="1.1" viewBox="0 0 864 648" width="864pt" xmlns="http://www.w3.org/2000/svg" xmlns:xlink="http://www.w3.org/1999/xlink">
 <defs>
  <style type="text/css">
*{stroke-linecap:butt;stroke-linejoin:round;}
  </style>
 </defs>
 <g id="figure_1">
  <g id="patch_1">
   <path d="
M0 648
L864 648
L864 0
L0 0
z
" style="fill:#ffffff;"/>
  </g>
  <g id="axes_1">
   <g id="patch_2">
    <path d="
M32.2375 610.2
L853.2 610.2
L853.2 25.7
L32.2375 25.7
z
" style="fill:#ffffff;"/>
   </g>
   <g id="line2d_1">
    <path clip-path="url(#p777c489eaf)" d="
M32.2375 604.069
L38.0325 603.627
L43.8276 604.822
L49.6226 605.172
L61.2126 604.344
L67.0077 603.579
L72.8027 603.033
L78.5977 603.747
L84.3928 604.745
L90.1878 605.004
L95.9828 605.454
L101.778 605.708
L107.573 605.454
L113.368 604.936
L119.163 605.25
L124.958 605.388
L130.753 605.224
L136.548 604.365
L142.343 604.78
L148.138 603.717
L159.728 603.868
L165.523 604.904
L171.318 604.046
L177.113 604.873
L182.908 606.247
L188.703 610.2
L194.498 610.2
L200.293 604.045
L206.088 599.757
L211.883 597.211
L217.678 592.678
L223.473 593.031
L229.269 589.291
L235.064 576.979
L240.859 567.065
L246.654 558.243
L252.449 546.242
L258.244 539.034
L264.039 534.603
L269.834 527.031
L275.629 525.072
L281.424 526.242
L287.219 525.799
L293.014 532.146
L298.809 531.656
L304.604 527.188
L310.399 527.007
L321.989 509.342
L327.784 509.892
L333.579 502.802
L339.374 496.864
L345.169 487.765
L350.964 478.068
L356.759 468.145
L362.554 462.541
L368.349 450.656
L374.144 443.256
L379.939 443.571
L385.734 431.229
L391.529 420.531
L403.119 412.536
L408.914 413.612
L414.709 412.355
L420.504 416.683
L426.3 413.284
L432.095 404.789
L437.89 403.241
L443.685 401.878
L449.48 395.126
L455.275 394.307
L461.07 387.729
L466.865 374.415
L472.66 367.935
L478.455 363.018
L484.25 360.142
L490.045 350.337
L495.84 336.282
L501.635 321.762
L507.43 308.53
L513.225 290.842
L519.02 285.828
L524.815 273.581
L530.61 240.821
L536.405 232.43
L542.2 228.018
L547.995 207.5
L553.79 212.852
L559.585 208.366
L565.38 205.571
L571.175 217.964
L576.97 230.994
L582.765 252.467
L588.56 282.056
L594.355 296.495
L600.15 325.918
L605.945 363.211
L611.74 387.611
L617.535 416.84
L623.331 436.092
L629.126 461.556
L634.921 477.252
L640.716 494.109
L646.511 492.994
L652.306 499.73
L658.101 508.541
L663.896 512.486
L669.691 523.758
L675.486 532.111
L681.281 539.264
L687.076 545.688
L692.871 548.499
L698.666 552.763
L704.461 558.825
L716.051 574.549
L721.846 577.604
L727.641 573.411
L733.436 580.509
L739.231 582.712
L745.026 587.285
L750.821 587.367
L756.616 585.891
L762.411 587.614
L768.206 592.361
L774.001 590.994
L779.796 593.236
L785.591 596.638
L791.386 598.069
L802.976 600.313
L814.566 602.011
L814.566 602.011" style="fill:none;stroke:#0000ff;stroke-linecap:square;"/>
   </g>
   <g id="line2d_2">
    <path clip-path="url(#p777c489eaf)" d="
M32.2375 610.2
L90.1878 610.2
L95.9828 608.793
L101.778 608.435
L107.573 608.871
L113.368 608.913
L119.163 608.535
L124.958 607.739
L130.753 608.368
L136.548 607.739
L142.343 606.493
L148.138 605.923
L153.933 604.011
L159.728 604.493
L165.523 603.454
L171.318 599.997
L177.113 596.088
L182.908 585.969
L188.703 574.431
L194.498 572.031
L200.293 552.677
L206.088 513.506
L211.883 455.61
L217.678 378.467
L223.473 297.885
L229.269 243.861
L235.064 172.119
L240.859 103.451
L246.654 65.2518
L252.449 42.9903
L258.244 46.4263
L264.039 57.5496
L269.834 64.5307
L275.629 88.9235
L281.424 129.824
L287.219 174.221
L293.014 233.984
L298.809 275.756
L304.604 310.912
L310.399 342.469
L316.194 378.968
L321.989 410.786
L327.784 436.925
L333.579 459.414
L339.374 477.471
L345.169 492.186
L350.964 507.374
L356.759 528.478
L362.554 546.016
L368.349 560.329
L374.144 571.784
L379.939 570.478
L385.734 587.139
L391.529 604.444
L397.324 604.49
L403.119 605.654
L408.914 601.187
L414.709 600.173
L420.504 602.834
L426.3 605.311
L432.095 602.594
L437.89 599.417
L443.685 591.645
L449.48 597.63
L455.275 602.232
L461.07 602.483
L466.865 603.734
L472.66 598.971
L484.25 600.231
L490.045 610.2
L513.225 610.2
L524.815 597.652
L530.61 599.061
L536.405 596.007
L542.2 601.346
L547.995 605.106
L553.79 605.233
L559.585 609.305
L565.38 592.801
L571.175 590.784
L576.97 583.02
L582.765 568.055
L588.56 566.035
L594.355 571.743
L600.15 563.477
L605.945 558.488
L611.74 557.542
L617.535 565.984
L623.331 569.95
L629.126 558.703
L634.921 569.409
L640.716 575.468
L646.511 591.952
L652.306 610.2
L658.101 609.413
L663.896 610.2
L675.486 610.2
L687.076 609.536
L692.871 605.299
L698.666 600.413
L704.461 594.603
L710.256 588.163
L716.051 582.197
L721.846 578.136
L727.641 578.974
L733.436 577.888
L739.231 583.049
L745.026 585.28
L750.821 593.288
L756.616 596.627
L762.411 598.109
L768.206 598.866
L774.001 604.405
L779.796 605.75
L791.386 603.387
L797.181 605.576
L802.976 608.472
L814.566 605.49
L814.566 605.49" style="fill:none;stroke:#008000;stroke-linecap:square;"/>
   </g>
   <g id="line2d_3">
    <path clip-path="url(#p777c489eaf)" d="
M32.2375 594.394
L38.0325 596.155
L43.8276 596.364
L49.6226 598.207
L55.4176 597.68
L61.2126 598.379
L67.0077 599.949
L72.8027 600.714
L78.5977 600.082
L84.3928 600.848
L90.1878 600.407
L95.9828 599.721
L101.778 600.153
L107.573 599.252
L113.368 599.805
L119.163 600.595
L124.958 600.538
L130.753 599.576
L136.548 599.588
L142.343 598.852
L148.138 598.874
L153.933 598.372
L159.728 597.613
L171.318 598.498
L177.113 597.541
L182.908 597.639
L188.703 600.32
L194.498 601.485
L200.293 604.096
L206.088 603.838
L211.883 604.214
L217.678 603.988
L223.473 604.255
L229.269 606.883
L235.064 610.2
L246.654 610.2
L252.449 605.019
L258.244 598.107
L264.039 594.639
L269.834 585.443
L275.629 570.423
L281.424 552.808
L287.219 542.959
L293.014 525.19
L298.809 512.926
L304.604 497.285
L310.399 475.7
L316.194 456.262
L321.989 445.523
L327.784 438.148
L333.579 425.966
L339.374 412.363
L345.169 403.994
L350.964 387.196
L356.759 377.895
L362.554 379.009
L368.349 375.013
L374.144 371.878
L379.939 374.78
L385.734 381.998
L391.529 393.953
L397.324 400.005
L403.119 403.388
L408.914 405.57
L414.709 413.116
L420.504 416.428
L426.3 434.197
L432.095 442.945
L437.89 449.55
L449.48 460.924
L455.275 465.253
L461.07 475.934
L466.865 486.153
L472.66 491.114
L478.455 499.339
L484.25 501.994
L490.045 512.183
L495.84 521.205
L501.635 527.518
L507.43 534.575
L513.225 542.513
L519.02 553.139
L524.815 563.039
L530.61 580.408
L536.405 589.128
L542.2 592.386
L547.995 599.519
L553.79 600.393
L559.585 603.192
L565.38 608.286
L571.175 604.222
L576.97 601.901
L582.765 610.2
L594.355 610.2
L600.15 610.024
L605.945 600.429
L611.74 600.277
L617.535 596.01
L623.331 592.544
L629.126 591.979
L634.921 595.883
L640.716 593.459
L646.511 591.76
L652.306 595.725
L658.101 598.966
L663.896 601.405
L669.691 601.646
L675.486 601.236
L681.281 599.942
L687.076 601.797
L692.871 606.706
L698.666 606.387
L704.461 605.539
L710.256 605.63
L716.051 606.654
L721.846 606.183
L727.641 608.181
L733.436 607.315
L739.231 604.199
L745.026 599.964
L750.821 599.861
L756.616 600.091
L762.411 599.193
L768.206 597.013
L774.001 597.124
L779.796 596.827
L791.386 595.337
L797.181 595.8
L802.976 597.301
L808.771 597.354
L814.566 597.221
L814.566 597.221" style="fill:none;stroke:#ff0000;stroke-linecap:square;"/>
   </g>
   <g id="line2d_4">
    <path clip-path="url(#p777c489eaf)" d="
M32.2375 564.622
L38.0325 567.149
L43.8276 568.845
L49.6226 569.226
L55.4176 573.911
L61.2126 577.189
L67.0077 578.796
L72.8027 581.715
L78.5977 581.259
L84.3928 582.085
L90.1878 584.45
L95.9828 585.648
L101.778 586.661
L107.573 588.133
L113.368 587.637
L119.163 586.314
L124.958 585.548
L130.753 587.543
L136.548 590.373
L142.343 588.277
L148.138 589.531
L153.933 589.095
L159.728 588.044
L165.523 588.109
L171.318 591.201
L177.113 592.152
L182.908 597.36
L188.703 592.856
L194.498 588.932
L200.293 590.788
L206.088 596.754
L211.883 600.304
L217.678 607.142
L223.473 605.716
L229.269 607.835
L235.064 610.2
L240.859 610.2
L246.654 604.355
L252.449 608.21
L258.244 610.2
L264.039 608.98
L269.834 609.92
L275.629 610.2
L281.424 605.007
L287.219 594.317
L293.014 592.959
L298.809 592.868
L304.604 591.546
L310.399 585.24
L316.194 586.422
L321.989 583.123
L327.784 572.42
L333.579 579.242
L339.374 582.603
L345.169 585.772
L350.964 596.771
L356.759 605.337
L362.554 599.656
L368.349 610.2
L374.144 607.354
L379.939 602.091
L385.734 597.934
L391.529 597.214
L397.324 597.816
L403.119 589.558
L408.914 584.454
L414.709 574.483
L420.504 561.897
L426.3 551.076
L432.095 555.702
L437.89 557.792
L443.685 554.94
L449.48 551.267
L455.275 543.734
L461.07 550.575
L466.865 552.347
L472.66 561.944
L478.455 552.376
L484.25 546.331
L490.045 548.238
L495.84 552.968
L501.635 563.395
L507.43 574.186
L513.225 583.755
L519.02 568.639
L524.815 574.668
L530.61 588.472
L536.405 589.049
L542.2 589.792
L547.995 610.2
L553.79 599.335
L559.585 606.086
L565.38 610.2
L571.175 597.874
L576.97 583.112
L582.765 546.886
L588.56 511.437
L594.355 490.984
L600.15 456.309
L605.945 430.362
L611.74 408.171
L617.535 381.36
L623.331 372.064
L629.126 354.244
L634.921 332.477
L640.716 336.727
L646.511 346.406
L652.306 349.172
L658.101 347.703
L663.896 354.493
L669.691 360.709
L675.486 370.036
L681.281 379.582
L687.076 390.269
L692.871 394.754
L698.666 405.319
L704.461 420.045
L710.256 421.857
L716.051 426.052
L721.846 434.479
L727.641 447.31
L733.436 449.988
L739.231 467.898
L745.026 480.682
L750.821 493.997
L756.616 503.2
L762.411 508.583
L768.206 514.612
L774.001 523.674
L785.591 536.478
L791.386 543.808
L797.181 547.451
L802.976 549.378
L808.771 553.673
L814.566 554.73
L814.566 554.73" style="fill:none;stroke:#00bfbf;stroke-linecap:square;"/>
   </g>
   <g id="line2d_5">
    <path clip-path="url(#p777c489eaf)" d="
M32.2375 599.904
L38.0325 600.086
L43.8276 598.612
L49.6226 598.232
L55.4176 598.255
L61.2126 597.197
L67.0077 598.632
L72.8027 596.957
L78.5977 596.288
L84.3928 592.318
L90.1878 590.826
L95.9828 590.752
L101.778 586.405
L107.573 581.508
L113.368 577.968
L119.163 572.045
L124.958 569.537
L130.753 565.119
L136.548 558.125
L142.343 547.561
L148.138 535.652
L153.933 521.655
L159.728 508.636
L165.523 487.397
L171.318 452.231
L177.113 404.953
L182.908 356.233
L188.703 310.167
L200.293 267.716
L206.088 236.426
L211.883 222.966
L217.678 242.912
L223.473 273.72
L229.269 298.788
L235.064 357.339
L240.859 425.821
L246.654 478.665
L252.449 524.398
L258.244 559.356
L264.039 584.549
L269.834 605.459
L275.629 610.2
L281.424 608.076
L287.219 606.56
L293.014 594.366
L298.809 586.29
L304.604 574.766
L310.399 574.707
L316.194 579.742
L321.989 583.315
L327.784 580.948
L333.579 578.08
L339.374 576.348
L345.169 587.218
L350.964 593.116
L356.759 598.381
L362.554 599.43
L368.349 598.247
L374.144 607.056
L379.939 608.534
L385.734 610.2
L391.529 602.409
L397.324 603.029
L403.119 599.447
L408.914 602.52
L414.709 602.731
L420.504 591.48
L426.3 587.567
L432.095 583.144
L437.89 571.605
L443.685 582.077
L449.48 587.148
L455.275 584.897
L461.07 578.777
L466.865 580.968
L472.66 584.816
L478.455 586.92
L484.25 585.005
L490.045 579.973
L495.84 589.236
L501.635 587.53
L507.43 597.722
L513.225 597.828
L519.02 596.401
L524.815 600.837
L530.61 606.791
L536.405 593.485
L542.2 594.184
L547.995 608.006
L553.79 610.2
L559.585 600.231
L565.38 606.545
L571.175 597.35
L576.97 607.473
L582.765 610.2
L600.15 610.2
L605.945 604.521
L611.74 609.242
L617.535 602.455
L623.331 605.693
L629.126 610.2
L634.921 604.693
L640.716 598.268
L646.511 602.266
L652.306 587.977
L658.101 590.594
L663.896 589.956
L669.691 588.612
L675.486 589.821
L681.281 593.65
L687.076 592.48
L692.871 589.193
L698.666 595.453
L704.461 599.355
L710.256 604.126
L716.051 600.575
L721.846 599.661
L727.641 601.514
L733.436 603.943
L739.231 604.187
L745.026 602.402
L750.821 595.332
L756.616 597.745
L762.411 598.238
L768.206 597.758
L774.001 598.637
L779.796 598.999
L785.591 598.304
L791.386 598.704
L797.181 598.278
L802.976 595.923
L808.771 597.935
L814.566 598.503
L814.566 598.503" style="fill:none;stroke:#bf00bf;stroke-linecap:square;"/>
   </g>
   <g id="matplotlib.axis_1">
    <g id="xtick_1">
     <g id="line2d_6">
      <path clip-path="url(#p777c489eaf)" d="
M32.2375 610.2
L32.2375 25.7" style="fill:none;stroke:#000000;stroke-dasharray:1.000000,3.000000;stroke-dashoffset:0.0;stroke-width:0.5;"/>
     </g>
     <g id="line2d_7">
      <defs>
       <path d="
M0 0
L0 -4" id="mc7db9fdffb" style="stroke:#000000;stroke-width:0.5;"/>
      </defs>
      <g>
       <use style="stroke:#000000;stroke-width:0.5;" x="32.2375" xlink:href="#mc7db9fdffb" y="610.2"/>
      </g>
     </g>
     <g id="line2d_8">
      <defs>
       <path d="
M0 0
L0 4" id="m5a7d422ac3" style="stroke:#000000;stroke-width:0.5;"/>
      </defs>
      <g>
       <use style="stroke:#000000;stroke-width:0.5;" x="32.2375" xlink:href="#m5a7d422ac3" y="25.7"/>
      </g>
     </g>
     <g id="text_1">
      <!-- 0 -->
      <defs>
       <path d="
M31.7812 66.4062
Q24.1719 66.4062 20.3281 58.9062
Q16.5 51.4219 16.5 36.375
Q16.5 21.3906 20.3281 13.8906
Q24.1719 6.39062 31.7812 6.39062
Q39.4531 6.39062 43.2812 13.8906
Q47.125 21.3906 47.125 36.375
Q47.125 51.4219 43.2812 58.9062
Q39.4531 66.4062 31.7812 66.4062
M31.7812 74.2188
Q44.0469 74.2188 50.5156 64.5156
Q56.9844 54.8281 56.9844 36.375
Q56.9844 17.9688 50.5156 8.26562
Q44.0469 -1.42188 31.7812 -1.42188
Q19.5312 -1.42188 13.0625 8.26562
Q6.59375 17.9688 6.59375 36.375
Q6.59375 54.8281 13.0625 64.5156
Q19.5312 74.2188 31.7812 74.2188" id="BitstreamVeraSans-Roman-30"/>
      </defs>
      <g transform="translate(29.71796875 621.7984375)scale(0.1 -0.1)">
       <use xlink:href="#BitstreamVeraSans-Roman-30"/>
      </g>
     </g>
    </g>
    <g id="xtick_2">
     <g id="line2d_9">
      <path clip-path="url(#p777c489eaf)" d="
M65.076 610.2
L65.076 25.7" style="fill:none;stroke:#000000;stroke-dasharray:1.000000,3.000000;stroke-dashoffset:0.0;stroke-width:0.5;"/>
     </g>
     <g id="line2d_10">
      <g>
       <use style="stroke:#000000;stroke-width:0.5;" x="65.076" xlink:href="#mc7db9fdffb" y="610.2"/>
      </g>
     </g>
     <g id="line2d_11">
      <g>
       <use style="stroke:#000000;stroke-width:0.5;" x="65.076" xlink:href="#m5a7d422ac3" y="25.7"/>
      </g>
     </g>
     <g id="text_2">
      <!-- 1 -->
      <defs>
       <path d="
M12.4062 8.29688
L28.5156 8.29688
L28.5156 63.9219
L10.9844 60.4062
L10.9844 69.3906
L28.4219 72.9062
L38.2812 72.9062
L38.2812 8.29688
L54.3906 8.29688
L54.3906 0
L12.4062 0
z
" id="BitstreamVeraSans-Roman-31"/>
      </defs>
      <g transform="translate(62.9056875 621.7984375)scale(0.1 -0.1)">
       <use xlink:href="#BitstreamVeraSans-Roman-31"/>
      </g>
     </g>
    </g>
    <g id="xtick_3">
     <g id="line2d_12">
      <path clip-path="url(#p777c489eaf)" d="
M97.9145 610.2
L97.9145 25.7" style="fill:none;stroke:#000000;stroke-dasharray:1.000000,3.000000;stroke-dashoffset:0.0;stroke-width:0.5;"/>
     </g>
     <g id="line2d_13">
      <g>
       <use style="stroke:#000000;stroke-width:0.5;" x="97.9145" xlink:href="#mc7db9fdffb" y="610.2"/>
      </g>
     </g>
     <g id="line2d_14">
      <g>
       <use style="stroke:#000000;stroke-width:0.5;" x="97.9145" xlink:href="#m5a7d422ac3" y="25.7"/>
      </g>
     </g>
     <g id="text_3">
      <!-- 2 -->
      <defs>
       <path d="
M19.1875 8.29688
L53.6094 8.29688
L53.6094 0
L7.32812 0
L7.32812 8.29688
Q12.9375 14.1094 22.625 23.8906
Q32.3281 33.6875 34.8125 36.5312
Q39.5469 41.8438 41.4219 45.5312
Q43.3125 49.2188 43.3125 52.7812
Q43.3125 58.5938 39.2344 62.25
Q35.1562 65.9219 28.6094 65.9219
Q23.9688 65.9219 18.8125 64.3125
Q13.6719 62.7031 7.8125 59.4219
L7.8125 69.3906
Q13.7656 71.7812 18.9375 73
Q24.125 74.2188 28.4219 74.2188
Q39.75 74.2188 46.4844 68.5469
Q53.2188 62.8906 53.2188 53.4219
Q53.2188 48.9219 51.5312 44.8906
Q49.8594 40.875 45.4062 35.4062
Q44.1875 33.9844 37.6406 27.2188
Q31.1094 20.4531 19.1875 8.29688" id="BitstreamVeraSans-Roman-32"/>
      </defs>
      <g transform="translate(95.6004375 621.7984375)scale(0.1 -0.1)">
       <use xlink:href="#BitstreamVeraSans-Roman-32"/>
      </g>
     </g>
    </g>
    <g id="xtick_4">
     <g id="line2d_15">
      <path clip-path="url(#p777c489eaf)" d="
M130.753 610.2
L130.753 25.7" style="fill:none;stroke:#000000;stroke-dasharray:1.000000,3.000000;stroke-dashoffset:0.0;stroke-width:0.5;"/>
     </g>
     <g id="line2d_16">
      <g>
       <use style="stroke:#000000;stroke-width:0.5;" x="130.753" xlink:href="#mc7db9fdffb" y="610.2"/>
      </g>
     </g>
     <g id="line2d_17">
      <g>
       <use style="stroke:#000000;stroke-width:0.5;" x="130.753" xlink:href="#m5a7d422ac3" y="25.7"/>
      </g>
     </g>
     <g id="text_4">
      <!-- 3 -->
      <defs>
       <path d="
M40.5781 39.3125
Q47.6562 37.7969 51.625 33
Q55.6094 28.2188 55.6094 21.1875
Q55.6094 10.4062 48.1875 4.48438
Q40.7656 -1.42188 27.0938 -1.42188
Q22.5156 -1.42188 17.6562 -0.515625
Q12.7969 0.390625 7.625 2.20312
L7.625 11.7188
Q11.7188 9.32812 16.5938 8.10938
Q21.4844 6.89062 26.8125 6.89062
Q36.0781 6.89062 40.9375 10.5469
Q45.7969 14.2031 45.7969 21.1875
Q45.7969 27.6406 41.2812 31.2656
Q36.7656 34.9062 28.7188 34.9062
L20.2188 34.9062
L20.2188 43.0156
L29.1094 43.0156
Q36.375 43.0156 40.2344 45.9219
Q44.0938 48.8281 44.0938 54.2969
Q44.0938 59.9062 40.1094 62.9062
Q36.1406 65.9219 28.7188 65.9219
Q24.6562 65.9219 20.0156 65.0312
Q15.375 64.1562 9.8125 62.3125
L9.8125 71.0938
Q15.4375 72.6562 20.3438 73.4375
Q25.25 74.2188 29.5938 74.2188
Q40.8281 74.2188 47.3594 69.1094
Q53.9062 64.0156 53.9062 55.3281
Q53.9062 49.2656 50.4375 45.0938
Q46.9688 40.9219 40.5781 39.3125" id="BitstreamVeraSans-Roman-33"/>
      </defs>
      <g transform="translate(128.35378125 621.7984375)scale(0.1 -0.1)">
       <use xlink:href="#BitstreamVeraSans-Roman-33"/>
      </g>
     </g>
    </g>
    <g id="xtick_5">
     <g id="line2d_18">
      <path clip-path="url(#p777c489eaf)" d="
M163.592 610.2
L163.592 25.7" style="fill:none;stroke:#000000;stroke-dasharray:1.000000,3.000000;stroke-dashoffset:0.0;stroke-width:0.5;"/>
     </g>
     <g id="line2d_19">
      <g>
       <use style="stroke:#000000;stroke-width:0.5;" x="163.5915" xlink:href="#mc7db9fdffb" y="610.2"/>
      </g>
     </g>
     <g id="line2d_20">
      <g>
       <use style="stroke:#000000;stroke-width:0.5;" x="163.5915" xlink:href="#m5a7d422ac3" y="25.7"/>
      </g>
     </g>
     <g id="text_5">
      <!-- 4 -->
      <defs>
       <path d="
M37.7969 64.3125
L12.8906 25.3906
L37.7969 25.3906
z

M35.2031 72.9062
L47.6094 72.9062
L47.6094 25.3906
L58.0156 25.3906
L58.0156 17.1875
L47.6094 17.1875
L47.6094 0
L37.7969 0
L37.7969 17.1875
L4.89062 17.1875
L4.89062 26.7031
z
" id="BitstreamVeraSans-Roman-34"/>
      </defs>
      <g transform="translate(160.93525 621.7984375)scale(0.1 -0.1)">
       <use xlink:href="#BitstreamVeraSans-Roman-34"/>
      </g>
     </g>
    </g>
    <g id="xtick_6">
     <g id="line2d_21">
      <path clip-path="url(#p777c489eaf)" d="
M196.43 610.2
L196.43 25.7" style="fill:none;stroke:#000000;stroke-dasharray:1.000000,3.000000;stroke-dashoffset:0.0;stroke-width:0.5;"/>
     </g>
     <g id="line2d_22">
      <g>
       <use style="stroke:#000000;stroke-width:0.5;" x="196.43" xlink:href="#mc7db9fdffb" y="610.2"/>
      </g>
     </g>
     <g id="line2d_23">
      <g>
       <use style="stroke:#000000;stroke-width:0.5;" x="196.43" xlink:href="#m5a7d422ac3" y="25.7"/>
      </g>
     </g>
     <g id="text_6">
      <!-- 5 -->
      <defs>
       <path d="
M10.7969 72.9062
L49.5156 72.9062
L49.5156 64.5938
L19.8281 64.5938
L19.8281 46.7344
Q21.9688 47.4688 24.1094 47.8281
Q26.2656 48.1875 28.4219 48.1875
Q40.625 48.1875 47.75 41.5
Q54.8906 34.8125 54.8906 23.3906
Q54.8906 11.625 47.5625 5.09375
Q40.2344 -1.42188 26.9062 -1.42188
Q22.3125 -1.42188 17.5469 -0.640625
Q12.7969 0.140625 7.71875 1.70312
L7.71875 11.625
Q12.1094 9.23438 16.7969 8.0625
Q21.4844 6.89062 26.7031 6.89062
Q35.1562 6.89062 40.0781 11.3281
Q45.0156 15.7656 45.0156 23.3906
Q45.0156 31 40.0781 35.4375
Q35.1562 39.8906 26.7031 39.8906
Q22.75 39.8906 18.8125 39.0156
Q14.8906 38.1406 10.7969 36.2812
z
" id="BitstreamVeraSans-Roman-35"/>
      </defs>
      <g transform="translate(194.07140625 621.7984375)scale(0.1 -0.1)">
       <use xlink:href="#BitstreamVeraSans-Roman-35"/>
      </g>
     </g>
    </g>
    <g id="xtick_7">
     <g id="line2d_24">
      <path clip-path="url(#p777c489eaf)" d="
M229.269 610.2
L229.269 25.7" style="fill:none;stroke:#000000;stroke-dasharray:1.000000,3.000000;stroke-dashoffset:0.0;stroke-width:0.5;"/>
     </g>
     <g id="line2d_25">
      <g>
       <use style="stroke:#000000;stroke-width:0.5;" x="229.2685" xlink:href="#mc7db9fdffb" y="610.2"/>
      </g>
     </g>
     <g id="line2d_26">
      <g>
       <use style="stroke:#000000;stroke-width:0.5;" x="229.2685" xlink:href="#m5a7d422ac3" y="25.7"/>
      </g>
     </g>
     <g id="text_7">
      <!-- 6 -->
      <defs>
       <path d="
M33.0156 40.375
Q26.375 40.375 22.4844 35.8281
Q18.6094 31.2969 18.6094 23.3906
Q18.6094 15.5312 22.4844 10.9531
Q26.375 6.39062 33.0156 6.39062
Q39.6562 6.39062 43.5312 10.9531
Q47.4062 15.5312 47.4062 23.3906
Q47.4062 31.2969 43.5312 35.8281
Q39.6562 40.375 33.0156 40.375
M52.5938 71.2969
L52.5938 62.3125
Q48.875 64.0625 45.0938 64.9844
Q41.3125 65.9219 37.5938 65.9219
Q27.8281 65.9219 22.6719 59.3281
Q17.5312 52.7344 16.7969 39.4062
Q19.6719 43.6562 24.0156 45.9219
Q28.375 48.1875 33.5938 48.1875
Q44.5781 48.1875 50.9531 41.5156
Q57.3281 34.8594 57.3281 23.3906
Q57.3281 12.1562 50.6875 5.35938
Q44.0469 -1.42188 33.0156 -1.42188
Q20.3594 -1.42188 13.6719 8.26562
Q6.98438 17.9688 6.98438 36.375
Q6.98438 53.6562 15.1875 63.9375
Q23.3906 74.2188 37.2031 74.2188
Q40.9219 74.2188 44.7031 73.4844
Q48.4844 72.75 52.5938 71.2969" id="BitstreamVeraSans-Roman-36"/>
      </defs>
      <g transform="translate(226.7513125 621.7984375)scale(0.1 -0.1)">
       <use xlink:href="#BitstreamVeraSans-Roman-36"/>
      </g>
     </g>
    </g>
    <g id="xtick_8">
     <g id="line2d_27">
      <path clip-path="url(#p777c489eaf)" d="
M262.107 610.2
L262.107 25.7" style="fill:none;stroke:#000000;stroke-dasharray:1.000000,3.000000;stroke-dashoffset:0.0;stroke-width:0.5;"/>
     </g>
     <g id="line2d_28">
      <g>
       <use style="stroke:#000000;stroke-width:0.5;" x="262.107" xlink:href="#mc7db9fdffb" y="610.2"/>
      </g>
     </g>
     <g id="line2d_29">
      <g>
       <use style="stroke:#000000;stroke-width:0.5;" x="262.107" xlink:href="#m5a7d422ac3" y="25.7"/>
      </g>
     </g>
     <g id="text_8">
      <!-- 7 -->
      <defs>
       <path d="
M8.20312 72.9062
L55.0781 72.9062
L55.0781 68.7031
L28.6094 0
L18.3125 0
L43.2188 64.5938
L8.20312 64.5938
z
" id="BitstreamVeraSans-Roman-37"/>
      </defs>
      <g transform="translate(259.76325 621.7984375)scale(0.1 -0.1)">
       <use xlink:href="#BitstreamVeraSans-Roman-37"/>
      </g>
     </g>
    </g>
    <g id="xtick_9">
     <g id="line2d_30">
      <path clip-path="url(#p777c489eaf)" d="
M294.946 610.2
L294.946 25.7" style="fill:none;stroke:#000000;stroke-dasharray:1.000000,3.000000;stroke-dashoffset:0.0;stroke-width:0.5;"/>
     </g>
     <g id="line2d_31">
      <g>
       <use style="stroke:#000000;stroke-width:0.5;" x="294.9455" xlink:href="#mc7db9fdffb" y="610.2"/>
      </g>
     </g>
     <g id="line2d_32">
      <g>
       <use style="stroke:#000000;stroke-width:0.5;" x="294.9455" xlink:href="#m5a7d422ac3" y="25.7"/>
      </g>
     </g>
     <g id="text_9">
      <!-- 8 -->
      <defs>
       <path d="
M31.7812 34.625
Q24.75 34.625 20.7188 30.8594
Q16.7031 27.0938 16.7031 20.5156
Q16.7031 13.9219 20.7188 10.1562
Q24.75 6.39062 31.7812 6.39062
Q38.8125 6.39062 42.8594 10.1719
Q46.9219 13.9688 46.9219 20.5156
Q46.9219 27.0938 42.8906 30.8594
Q38.875 34.625 31.7812 34.625
M21.9219 38.8125
Q15.5781 40.375 12.0312 44.7188
Q8.5 49.0781 8.5 55.3281
Q8.5 64.0625 14.7188 69.1406
Q20.9531 74.2188 31.7812 74.2188
Q42.6719 74.2188 48.875 69.1406
Q55.0781 64.0625 55.0781 55.3281
Q55.0781 49.0781 51.5312 44.7188
Q48 40.375 41.7031 38.8125
Q48.8281 37.1562 52.7969 32.3125
Q56.7812 27.4844 56.7812 20.5156
Q56.7812 9.90625 50.3125 4.23438
Q43.8438 -1.42188 31.7812 -1.42188
Q19.7344 -1.42188 13.25 4.23438
Q6.78125 9.90625 6.78125 20.5156
Q6.78125 27.4844 10.7812 32.3125
Q14.7969 37.1562 21.9219 38.8125
M18.3125 54.3906
Q18.3125 48.7344 21.8438 45.5625
Q25.3906 42.3906 31.7812 42.3906
Q38.1406 42.3906 41.7188 45.5625
Q45.3125 48.7344 45.3125 54.3906
Q45.3125 60.0625 41.7188 63.2344
Q38.1406 66.4062 31.7812 66.4062
Q25.3906 66.4062 21.8438 63.2344
Q18.3125 60.0625 18.3125 54.3906" id="BitstreamVeraSans-Roman-38"/>
      </defs>
      <g transform="translate(292.4455 621.7984375)scale(0.1 -0.1)">
       <use xlink:href="#BitstreamVeraSans-Roman-38"/>
      </g>
     </g>
    </g>
    <g id="xtick_10">
     <g id="line2d_33">
      <path clip-path="url(#p777c489eaf)" d="
M327.784 610.2
L327.784 25.7" style="fill:none;stroke:#000000;stroke-dasharray:1.000000,3.000000;stroke-dashoffset:0.0;stroke-width:0.5;"/>
     </g>
     <g id="line2d_34">
      <g>
       <use style="stroke:#000000;stroke-width:0.5;" x="327.784" xlink:href="#mc7db9fdffb" y="610.2"/>
      </g>
     </g>
     <g id="line2d_35">
      <g>
       <use style="stroke:#000000;stroke-width:0.5;" x="327.784" xlink:href="#m5a7d422ac3" y="25.7"/>
      </g>
     </g>
     <g id="text_10">
      <!-- 9 -->
      <defs>
       <path d="
M10.9844 1.51562
L10.9844 10.5
Q14.7031 8.73438 18.5 7.8125
Q22.3125 6.89062 25.9844 6.89062
Q35.75 6.89062 40.8906 13.4531
Q46.0469 20.0156 46.7812 33.4062
Q43.9531 29.2031 39.5938 26.9531
Q35.25 24.7031 29.9844 24.7031
Q19.0469 24.7031 12.6719 31.3125
Q6.29688 37.9375 6.29688 49.4219
Q6.29688 60.6406 12.9375 67.4219
Q19.5781 74.2188 30.6094 74.2188
Q43.2656 74.2188 49.9219 64.5156
Q56.5938 54.8281 56.5938 36.375
Q56.5938 19.1406 48.4062 8.85938
Q40.2344 -1.42188 26.4219 -1.42188
Q22.7031 -1.42188 18.8906 -0.6875
Q15.0938 0.046875 10.9844 1.51562
M30.6094 32.4219
Q37.25 32.4219 41.125 36.9531
Q45.0156 41.5 45.0156 49.4219
Q45.0156 57.2812 41.125 61.8438
Q37.25 66.4062 30.6094 66.4062
Q23.9688 66.4062 20.0938 61.8438
Q16.2188 57.2812 16.2188 49.4219
Q16.2188 41.5 20.0938 36.9531
Q23.9688 32.4219 30.6094 32.4219" id="BitstreamVeraSans-Roman-39"/>
      </defs>
      <g transform="translate(325.26915625 621.7984375)scale(0.1 -0.1)">
       <use xlink:href="#BitstreamVeraSans-Roman-39"/>
      </g>
     </g>
    </g>
    <g id="xtick_11">
     <g id="line2d_36">
      <path clip-path="url(#p777c489eaf)" d="
M360.623 610.2
L360.623 25.7" style="fill:none;stroke:#000000;stroke-dasharray:1.000000,3.000000;stroke-dashoffset:0.0;stroke-width:0.5;"/>
     </g>
     <g id="line2d_37">
      <g>
       <use style="stroke:#000000;stroke-width:0.5;" x="360.6225" xlink:href="#mc7db9fdffb" y="610.2"/>
      </g>
     </g>
     <g id="line2d_38">
      <g>
       <use style="stroke:#000000;stroke-width:0.5;" x="360.6225" xlink:href="#m5a7d422ac3" y="25.7"/>
      </g>
     </g>
     <g id="text_11">
      <!-- 10 -->
      <g transform="translate(355.14125 621.7984375)scale(0.1 -0.1)">
       <use xlink:href="#BitstreamVeraSans-Roman-31"/>
       <use x="63.623046875" xlink:href="#BitstreamVeraSans-Roman-30"/>
      </g>
     </g>
    </g>
    <g id="xtick_12">
     <g id="line2d_39">
      <path clip-path="url(#p777c489eaf)" d="
M393.461 610.2
L393.461 25.7" style="fill:none;stroke:#000000;stroke-dasharray:1.000000,3.000000;stroke-dashoffset:0.0;stroke-width:0.5;"/>
     </g>
     <g id="line2d_40">
      <g>
       <use style="stroke:#000000;stroke-width:0.5;" x="393.461" xlink:href="#mc7db9fdffb" y="610.2"/>
      </g>
     </g>
     <g id="line2d_41">
      <g>
       <use style="stroke:#000000;stroke-width:0.5;" x="393.461" xlink:href="#m5a7d422ac3" y="25.7"/>
      </g>
     </g>
     <g id="text_12">
      <!-- 11 -->
      <g transform="translate(388.1094375 621.7984375)scale(0.1 -0.1)">
       <use xlink:href="#BitstreamVeraSans-Roman-31"/>
       <use x="63.623046875" xlink:href="#BitstreamVeraSans-Roman-31"/>
      </g>
     </g>
    </g>
    <g id="xtick_13">
     <g id="line2d_42">
      <path clip-path="url(#p777c489eaf)" d="
M426.3 610.2
L426.3 25.7" style="fill:none;stroke:#000000;stroke-dasharray:1.000000,3.000000;stroke-dashoffset:0.0;stroke-width:0.5;"/>
     </g>
     <g id="line2d_43">
      <g>
       <use style="stroke:#000000;stroke-width:0.5;" x="426.2995" xlink:href="#mc7db9fdffb" y="610.2"/>
      </g>
     </g>
     <g id="line2d_44">
      <g>
       <use style="stroke:#000000;stroke-width:0.5;" x="426.2995" xlink:href="#m5a7d422ac3" y="25.7"/>
      </g>
     </g>
     <g id="text_13">
      <!-- 12 -->
      <g transform="translate(420.987 621.7984375)scale(0.1 -0.1)">
       <use xlink:href="#BitstreamVeraSans-Roman-31"/>
       <use x="63.623046875" xlink:href="#BitstreamVeraSans-Roman-32"/>
      </g>
     </g>
    </g>
    <g id="xtick_14">
     <g id="line2d_45">
      <path clip-path="url(#p777c489eaf)" d="
M459.138 610.2
L459.138 25.7" style="fill:none;stroke:#000000;stroke-dasharray:1.000000,3.000000;stroke-dashoffset:0.0;stroke-width:0.5;"/>
     </g>
     <g id="line2d_46">
      <g>
       <use style="stroke:#000000;stroke-width:0.5;" x="459.138" xlink:href="#mc7db9fdffb" y="610.2"/>
      </g>
     </g>
     <g id="line2d_47">
      <g>
       <use style="stroke:#000000;stroke-width:0.5;" x="459.138" xlink:href="#m5a7d422ac3" y="25.7"/>
      </g>
     </g>
     <g id="text_14">
      <!-- 13 -->
      <g transform="translate(453.7255 621.7984375)scale(0.1 -0.1)">
       <use xlink:href="#BitstreamVeraSans-Roman-31"/>
       <use x="63.623046875" xlink:href="#BitstreamVeraSans-Roman-33"/>
      </g>
     </g>
    </g>
    <g id="xtick_15">
     <g id="line2d_48">
      <path clip-path="url(#p777c489eaf)" d="
M491.977 610.2
L491.977 25.7" style="fill:none;stroke:#000000;stroke-dasharray:1.000000,3.000000;stroke-dashoffset:0.0;stroke-width:0.5;"/>
     </g>
     <g id="line2d_49">
      <g>
       <use style="stroke:#000000;stroke-width:0.5;" x="491.9765" xlink:href="#mc7db9fdffb" y="610.2"/>
      </g>
     </g>
     <g id="line2d_50">
      <g>
       <use style="stroke:#000000;stroke-width:0.5;" x="491.9765" xlink:href="#m5a7d422ac3" y="25.7"/>
      </g>
     </g>
     <g id="text_15">
      <!-- 14 -->
      <g transform="translate(486.4436875 621.7984375)scale(0.1 -0.1)">
       <use xlink:href="#BitstreamVeraSans-Roman-31"/>
       <use x="63.623046875" xlink:href="#BitstreamVeraSans-Roman-34"/>
      </g>
     </g>
    </g>
    <g id="xtick_16">
     <g id="line2d_51">
      <path clip-path="url(#p777c489eaf)" d="
M524.815 610.2
L524.815 25.7" style="fill:none;stroke:#000000;stroke-dasharray:1.000000,3.000000;stroke-dashoffset:0.0;stroke-width:0.5;"/>
     </g>
     <g id="line2d_52">
      <g>
       <use style="stroke:#000000;stroke-width:0.5;" x="524.815" xlink:href="#mc7db9fdffb" y="610.2"/>
      </g>
     </g>
     <g id="line2d_53">
      <g>
       <use style="stroke:#000000;stroke-width:0.5;" x="524.815" xlink:href="#m5a7d422ac3" y="25.7"/>
      </g>
     </g>
     <g id="text_16">
      <!-- 15 -->
      <g transform="translate(519.4384375 621.7984375)scale(0.1 -0.1)">
       <use xlink:href="#BitstreamVeraSans-Roman-31"/>
       <use x="63.623046875" xlink:href="#BitstreamVeraSans-Roman-35"/>
      </g>
     </g>
    </g>
    <g id="xtick_17">
     <g id="line2d_54">
      <path clip-path="url(#p777c489eaf)" d="
M557.654 610.2
L557.654 25.7" style="fill:none;stroke:#000000;stroke-dasharray:1.000000,3.000000;stroke-dashoffset:0.0;stroke-width:0.5;"/>
     </g>
     <g id="line2d_55">
      <g>
       <use style="stroke:#000000;stroke-width:0.5;" x="557.6535" xlink:href="#mc7db9fdffb" y="610.2"/>
      </g>
     </g>
     <g id="line2d_56">
      <g>
       <use style="stroke:#000000;stroke-width:0.5;" x="557.6535" xlink:href="#m5a7d422ac3" y="25.7"/>
      </g>
     </g>
     <g id="text_17">
      <!-- 16 -->
      <g transform="translate(552.1550625 621.7984375)scale(0.1 -0.1)">
       <use xlink:href="#BitstreamVeraSans-Roman-31"/>
       <use x="63.623046875" xlink:href="#BitstreamVeraSans-Roman-36"/>
      </g>
     </g>
    </g>
    <g id="xtick_18">
     <g id="line2d_57">
      <path clip-path="url(#p777c489eaf)" d="
M590.492 610.2
L590.492 25.7" style="fill:none;stroke:#000000;stroke-dasharray:1.000000,3.000000;stroke-dashoffset:0.0;stroke-width:0.5;"/>
     </g>
     <g id="line2d_58">
      <g>
       <use style="stroke:#000000;stroke-width:0.5;" x="590.492" xlink:href="#mc7db9fdffb" y="610.2"/>
      </g>
     </g>
     <g id="line2d_59">
      <g>
       <use style="stroke:#000000;stroke-width:0.5;" x="590.492" xlink:href="#m5a7d422ac3" y="25.7"/>
      </g>
     </g>
     <g id="text_18">
      <!-- 17 -->
      <g transform="translate(585.1060625 621.7984375)scale(0.1 -0.1)">
       <use xlink:href="#BitstreamVeraSans-Roman-31"/>
       <use x="63.623046875" xlink:href="#BitstreamVeraSans-Roman-37"/>
      </g>
     </g>
    </g>
    <g id="xtick_19">
     <g id="line2d_60">
      <path clip-path="url(#p777c489eaf)" d="
M623.331 610.2
L623.331 25.7" style="fill:none;stroke:#000000;stroke-dasharray:1.000000,3.000000;stroke-dashoffset:0.0;stroke-width:0.5;"/>
     </g>
     <g id="line2d_61">
      <g>
       <use style="stroke:#000000;stroke-width:0.5;" x="623.3305" xlink:href="#mc7db9fdffb" y="610.2"/>
      </g>
     </g>
     <g id="line2d_62">
      <g>
       <use style="stroke:#000000;stroke-width:0.5;" x="623.3305" xlink:href="#m5a7d422ac3" y="25.7"/>
      </g>
     </g>
     <g id="text_19">
      <!-- 18 -->
      <g transform="translate(617.85940625 621.7984375)scale(0.1 -0.1)">
       <use xlink:href="#BitstreamVeraSans-Roman-31"/>
       <use x="63.623046875" xlink:href="#BitstreamVeraSans-Roman-38"/>
      </g>
     </g>
    </g>
    <g id="xtick_20">
     <g id="line2d_63">
      <path clip-path="url(#p777c489eaf)" d="
M656.169 610.2
L656.169 25.7" style="fill:none;stroke:#000000;stroke-dasharray:1.000000,3.000000;stroke-dashoffset:0.0;stroke-width:0.5;"/>
     </g>
     <g id="line2d_64">
      <g>
       <use style="stroke:#000000;stroke-width:0.5;" x="656.169" xlink:href="#mc7db9fdffb" y="610.2"/>
      </g>
     </g>
     <g id="line2d_65">
      <g>
       <use style="stroke:#000000;stroke-width:0.5;" x="656.169" xlink:href="#m5a7d422ac3" y="25.7"/>
      </g>
     </g>
     <g id="text_20">
      <!-- 19 -->
      <g transform="translate(650.70728125 621.7984375)scale(0.1 -0.1)">
       <use xlink:href="#BitstreamVeraSans-Roman-31"/>
       <use x="63.623046875" xlink:href="#BitstreamVeraSans-Roman-39"/>
      </g>
     </g>
    </g>
    <g id="xtick_21">
     <g id="line2d_66">
      <path clip-path="url(#p777c489eaf)" d="
M689.008 610.2
L689.008 25.7" style="fill:none;stroke:#000000;stroke-dasharray:1.000000,3.000000;stroke-dashoffset:0.0;stroke-width:0.5;"/>
     </g>
     <g id="line2d_67">
      <g>
       <use style="stroke:#000000;stroke-width:0.5;" x="689.0075" xlink:href="#mc7db9fdffb" y="610.2"/>
      </g>
     </g>
     <g id="line2d_68">
      <g>
       <use style="stroke:#000000;stroke-width:0.5;" x="689.0075" xlink:href="#m5a7d422ac3" y="25.7"/>
      </g>
     </g>
     <g id="text_21">
      <!-- 20 -->
      <g transform="translate(683.3434375 621.7984375)scale(0.1 -0.1)">
       <use xlink:href="#BitstreamVeraSans-Roman-32"/>
       <use x="63.623046875" xlink:href="#BitstreamVeraSans-Roman-30"/>
      </g>
     </g>
    </g>
    <g id="xtick_22">
     <g id="line2d_69">
      <path clip-path="url(#p777c489eaf)" d="
M721.846 610.2
L721.846 25.7" style="fill:none;stroke:#000000;stroke-dasharray:1.000000,3.000000;stroke-dashoffset:0.0;stroke-width:0.5;"/>
     </g>
     <g id="line2d_70">
      <g>
       <use style="stroke:#000000;stroke-width:0.5;" x="721.846" xlink:href="#mc7db9fdffb" y="610.2"/>
      </g>
     </g>
     <g id="line2d_71">
      <g>
       <use style="stroke:#000000;stroke-width:0.5;" x="721.846" xlink:href="#m5a7d422ac3" y="25.7"/>
      </g>
     </g>
     <g id="text_22">
      <!-- 21 -->
      <g transform="translate(716.311625 621.7984375)scale(0.1 -0.1)">
       <use xlink:href="#BitstreamVeraSans-Roman-32"/>
       <use x="63.623046875" xlink:href="#BitstreamVeraSans-Roman-31"/>
      </g>
     </g>
    </g>
    <g id="xtick_23">
     <g id="line2d_72">
      <path clip-path="url(#p777c489eaf)" d="
M754.685 610.2
L754.685 25.7" style="fill:none;stroke:#000000;stroke-dasharray:1.000000,3.000000;stroke-dashoffset:0.0;stroke-width:0.5;"/>
     </g>
     <g id="line2d_73">
      <g>
       <use style="stroke:#000000;stroke-width:0.5;" x="754.6845" xlink:href="#mc7db9fdffb" y="610.2"/>
      </g>
     </g>
     <g id="line2d_74">
      <g>
       <use style="stroke:#000000;stroke-width:0.5;" x="754.6845" xlink:href="#m5a7d422ac3" y="25.7"/>
      </g>
     </g>
     <g id="text_23">
      <!-- 22 -->
      <g transform="translate(749.1891875 621.7984375)scale(0.1 -0.1)">
       <use xlink:href="#BitstreamVeraSans-Roman-32"/>
       <use x="63.623046875" xlink:href="#BitstreamVeraSans-Roman-32"/>
      </g>
     </g>
    </g>
    <g id="xtick_24">
     <g id="line2d_75">
      <path clip-path="url(#p777c489eaf)" d="
M787.523 610.2
L787.523 25.7" style="fill:none;stroke:#000000;stroke-dasharray:1.000000,3.000000;stroke-dashoffset:0.0;stroke-width:0.5;"/>
     </g>
     <g id="line2d_76">
      <g>
       <use style="stroke:#000000;stroke-width:0.5;" x="787.523" xlink:href="#mc7db9fdffb" y="610.2"/>
      </g>
     </g>
     <g id="line2d_77">
      <g>
       <use style="stroke:#000000;stroke-width:0.5;" x="787.523" xlink:href="#m5a7d422ac3" y="25.7"/>
      </g>
     </g>
     <g id="text_24">
      <!-- 23 -->
      <g transform="translate(781.9276875 621.7984375)scale(0.1 -0.1)">
       <use xlink:href="#BitstreamVeraSans-Roman-32"/>
       <use x="63.623046875" xlink:href="#BitstreamVeraSans-Roman-33"/>
      </g>
     </g>
    </g>
    <g id="xtick_25">
     <g id="line2d_78">
      <path clip-path="url(#p777c489eaf)" d="
M820.361 610.2
L820.361 25.7" style="fill:none;stroke:#000000;stroke-dasharray:1.000000,3.000000;stroke-dashoffset:0.0;stroke-width:0.5;"/>
     </g>
     <g id="line2d_79">
      <g>
       <use style="stroke:#000000;stroke-width:0.5;" x="820.3615" xlink:href="#mc7db9fdffb" y="610.2"/>
      </g>
     </g>
     <g id="line2d_80">
      <g>
       <use style="stroke:#000000;stroke-width:0.5;" x="820.3615" xlink:href="#m5a7d422ac3" y="25.7"/>
      </g>
     </g>
     <g id="text_25">
      <!-- 24 -->
      <g transform="translate(814.645875 621.7984375)scale(0.1 -0.1)">
       <use xlink:href="#BitstreamVeraSans-Roman-32"/>
       <use x="63.623046875" xlink:href="#BitstreamVeraSans-Roman-34"/>
      </g>
     </g>
    </g>
    <g id="text_26">
     <!-- hours after midnight -->
     <defs>
      <path id="BitstreamVeraSans-Roman-20"/>
      <path d="
M54.8906 33.0156
L54.8906 0
L45.9062 0
L45.9062 32.7188
Q45.9062 40.4844 42.875 44.3281
Q39.8438 48.1875 33.7969 48.1875
Q26.5156 48.1875 22.3125 43.5469
Q18.1094 38.9219 18.1094 30.9062
L18.1094 0
L9.07812 0
L9.07812 75.9844
L18.1094 75.9844
L18.1094 46.1875
Q21.3438 51.125 25.7031 53.5625
Q30.0781 56 35.7969 56
Q45.2188 56 50.0469 50.1719
Q54.8906 44.3438 54.8906 33.0156" id="BitstreamVeraSans-Roman-68"/>
      <path d="
M9.42188 54.6875
L18.4062 54.6875
L18.4062 0
L9.42188 0
z

M9.42188 75.9844
L18.4062 75.9844
L18.4062 64.5938
L9.42188 64.5938
z
" id="BitstreamVeraSans-Roman-69"/>
      <path d="
M44.2812 53.0781
L44.2812 44.5781
Q40.4844 46.5312 36.375 47.5
Q32.2812 48.4844 27.875 48.4844
Q21.1875 48.4844 17.8438 46.4375
Q14.5 44.3906 14.5 40.2812
Q14.5 37.1562 16.8906 35.375
Q19.2812 33.5938 26.5156 31.9844
L29.5938 31.2969
Q39.1562 29.25 43.1875 25.5156
Q47.2188 21.7812 47.2188 15.0938
Q47.2188 7.46875 41.1875 3.01562
Q35.1562 -1.42188 24.6094 -1.42188
Q20.2188 -1.42188 15.4531 -0.5625
Q10.6875 0.296875 5.42188 2
L5.42188 11.2812
Q10.4062 8.6875 15.2344 7.39062
Q20.0625 6.10938 24.8125 6.10938
Q31.1562 6.10938 34.5625 8.28125
Q37.9844 10.4531 37.9844 14.4062
Q37.9844 18.0625 35.5156 20.0156
Q33.0625 21.9688 24.7031 23.7812
L21.5781 24.5156
Q13.2344 26.2656 9.51562 29.9062
Q5.8125 33.5469 5.8125 39.8906
Q5.8125 47.6094 11.2812 51.7969
Q16.75 56 26.8125 56
Q31.7812 56 36.1719 55.2656
Q40.5781 54.5469 44.2812 53.0781" id="BitstreamVeraSans-Roman-73"/>
      <path d="
M56.2031 29.5938
L56.2031 25.2031
L14.8906 25.2031
Q15.4844 15.9219 20.4844 11.0625
Q25.4844 6.20312 34.4219 6.20312
Q39.5938 6.20312 44.4531 7.46875
Q49.3125 8.73438 54.1094 11.2812
L54.1094 2.78125
Q49.2656 0.734375 44.1875 -0.34375
Q39.1094 -1.42188 33.8906 -1.42188
Q20.7969 -1.42188 13.1562 6.1875
Q5.51562 13.8125 5.51562 26.8125
Q5.51562 40.2344 12.7656 48.1094
Q20.0156 56 32.3281 56
Q43.3594 56 49.7812 48.8906
Q56.2031 41.7969 56.2031 29.5938
M47.2188 32.2344
Q47.125 39.5938 43.0938 43.9844
Q39.0625 48.3906 32.4219 48.3906
Q24.9062 48.3906 20.3906 44.1406
Q15.875 39.8906 15.1875 32.1719
z
" id="BitstreamVeraSans-Roman-65"/>
      <path d="
M37.1094 75.9844
L37.1094 68.5
L28.5156 68.5
Q23.6875 68.5 21.7969 66.5469
Q19.9219 64.5938 19.9219 59.5156
L19.9219 54.6875
L34.7188 54.6875
L34.7188 47.7031
L19.9219 47.7031
L19.9219 0
L10.8906 0
L10.8906 47.7031
L2.29688 47.7031
L2.29688 54.6875
L10.8906 54.6875
L10.8906 58.5
Q10.8906 67.625 15.1406 71.7969
Q19.3906 75.9844 28.6094 75.9844
z
" id="BitstreamVeraSans-Roman-66"/>
      <path d="
M45.4062 27.9844
Q45.4062 37.75 41.375 43.1094
Q37.3594 48.4844 30.0781 48.4844
Q22.8594 48.4844 18.8281 43.1094
Q14.7969 37.75 14.7969 27.9844
Q14.7969 18.2656 18.8281 12.8906
Q22.8594 7.51562 30.0781 7.51562
Q37.3594 7.51562 41.375 12.8906
Q45.4062 18.2656 45.4062 27.9844
M54.3906 6.78125
Q54.3906 -7.17188 48.1875 -13.9844
Q42 -20.7969 29.2031 -20.7969
Q24.4688 -20.7969 20.2656 -20.0938
Q16.0625 -19.3906 12.1094 -17.9219
L12.1094 -9.1875
Q16.0625 -11.3281 19.9219 -12.3438
Q23.7812 -13.375 27.7812 -13.375
Q36.625 -13.375 41.0156 -8.76562
Q45.4062 -4.15625 45.4062 5.17188
L45.4062 9.625
Q42.625 4.78125 38.2812 2.39062
Q33.9375 0 27.875 0
Q17.8281 0 11.6719 7.65625
Q5.51562 15.3281 5.51562 27.9844
Q5.51562 40.6719 11.6719 48.3281
Q17.8281 56 27.875 56
Q33.9375 56 38.2812 53.6094
Q42.625 51.2188 45.4062 46.3906
L45.4062 54.6875
L54.3906 54.6875
z
" id="BitstreamVeraSans-Roman-67"/>
      <path d="
M34.2812 27.4844
Q23.3906 27.4844 19.1875 25
Q14.9844 22.5156 14.9844 16.5
Q14.9844 11.7188 18.1406 8.90625
Q21.2969 6.10938 26.7031 6.10938
Q34.1875 6.10938 38.7031 11.4062
Q43.2188 16.7031 43.2188 25.4844
L43.2188 27.4844
z

M52.2031 31.2031
L52.2031 0
L43.2188 0
L43.2188 8.29688
Q40.1406 3.32812 35.5469 0.953125
Q30.9531 -1.42188 24.3125 -1.42188
Q15.9219 -1.42188 10.9531 3.29688
Q6 8.01562 6 15.9219
Q6 25.1406 12.1719 29.8281
Q18.3594 34.5156 30.6094 34.5156
L43.2188 34.5156
L43.2188 35.4062
Q43.2188 41.6094 39.1406 45
Q35.0625 48.3906 27.6875 48.3906
Q23 48.3906 18.5469 47.2656
Q14.1094 46.1406 10.0156 43.8906
L10.0156 52.2031
Q14.9375 54.1094 19.5781 55.0469
Q24.2188 56 28.6094 56
Q40.4844 56 46.3438 49.8438
Q52.2031 43.7031 52.2031 31.2031" id="BitstreamVeraSans-Roman-61"/>
      <path d="
M8.5 21.5781
L8.5 54.6875
L17.4844 54.6875
L17.4844 21.9219
Q17.4844 14.1562 20.5 10.2656
Q23.5312 6.39062 29.5938 6.39062
Q36.8594 6.39062 41.0781 11.0312
Q45.3125 15.6719 45.3125 23.6875
L45.3125 54.6875
L54.2969 54.6875
L54.2969 0
L45.3125 0
L45.3125 8.40625
Q42.0469 3.42188 37.7188 1
Q33.4062 -1.42188 27.6875 -1.42188
Q18.2656 -1.42188 13.375 4.4375
Q8.5 10.2969 8.5 21.5781" id="BitstreamVeraSans-Roman-75"/>
      <path d="
M18.3125 70.2188
L18.3125 54.6875
L36.8125 54.6875
L36.8125 47.7031
L18.3125 47.7031
L18.3125 18.0156
Q18.3125 11.3281 20.1406 9.42188
Q21.9688 7.51562 27.5938 7.51562
L36.8125 7.51562
L36.8125 0
L27.5938 0
Q17.1875 0 13.2344 3.875
Q9.28125 7.76562 9.28125 18.0156
L9.28125 47.7031
L2.6875 47.7031
L2.6875 54.6875
L9.28125 54.6875
L9.28125 70.2188
z
" id="BitstreamVeraSans-Roman-74"/>
      <path d="
M45.4062 46.3906
L45.4062 75.9844
L54.3906 75.9844
L54.3906 0
L45.4062 0
L45.4062 8.20312
Q42.5781 3.32812 38.25 0.953125
Q33.9375 -1.42188 27.875 -1.42188
Q17.9688 -1.42188 11.7344 6.48438
Q5.51562 14.4062 5.51562 27.2969
Q5.51562 40.1875 11.7344 48.0938
Q17.9688 56 27.875 56
Q33.9375 56 38.25 53.625
Q42.5781 51.2656 45.4062 46.3906
M14.7969 27.2969
Q14.7969 17.3906 18.875 11.75
Q22.9531 6.10938 30.0781 6.10938
Q37.2031 6.10938 41.2969 11.75
Q45.4062 17.3906 45.4062 27.2969
Q45.4062 37.2031 41.2969 42.8438
Q37.2031 48.4844 30.0781 48.4844
Q22.9531 48.4844 18.875 42.8438
Q14.7969 37.2031 14.7969 27.2969" id="BitstreamVeraSans-Roman-64"/>
      <path d="
M41.1094 46.2969
Q39.5938 47.1719 37.8125 47.5781
Q36.0312 48 33.8906 48
Q26.2656 48 22.1875 43.0469
Q18.1094 38.0938 18.1094 28.8125
L18.1094 0
L9.07812 0
L9.07812 54.6875
L18.1094 54.6875
L18.1094 46.1875
Q20.9531 51.1719 25.4844 53.5781
Q30.0312 56 36.5312 56
Q37.4531 56 38.5781 55.875
Q39.7031 55.7656 41.0625 55.5156
z
" id="BitstreamVeraSans-Roman-72"/>
      <path d="
M52 44.1875
Q55.375 50.25 60.0625 53.125
Q64.75 56 71.0938 56
Q79.6406 56 84.2812 50.0156
Q88.9219 44.0469 88.9219 33.0156
L88.9219 0
L79.8906 0
L79.8906 32.7188
Q79.8906 40.5781 77.0938 44.375
Q74.3125 48.1875 68.6094 48.1875
Q61.625 48.1875 57.5625 43.5469
Q53.5156 38.9219 53.5156 30.9062
L53.5156 0
L44.4844 0
L44.4844 32.7188
Q44.4844 40.625 41.7031 44.4062
Q38.9219 48.1875 33.1094 48.1875
Q26.2188 48.1875 22.1562 43.5312
Q18.1094 38.875 18.1094 30.9062
L18.1094 0
L9.07812 0
L9.07812 54.6875
L18.1094 54.6875
L18.1094 46.1875
Q21.1875 51.2188 25.4844 53.6094
Q29.7812 56 35.6875 56
Q41.6562 56 45.8281 52.9688
Q50 49.9531 52 44.1875" id="BitstreamVeraSans-Roman-6d"/>
      <path d="
M54.8906 33.0156
L54.8906 0
L45.9062 0
L45.9062 32.7188
Q45.9062 40.4844 42.875 44.3281
Q39.8438 48.1875 33.7969 48.1875
Q26.5156 48.1875 22.3125 43.5469
Q18.1094 38.9219 18.1094 30.9062
L18.1094 0
L9.07812 0
L9.07812 54.6875
L18.1094 54.6875
L18.1094 46.1875
Q21.3438 51.125 25.7031 53.5625
Q30.0781 56 35.7969 56
Q45.2188 56 50.0469 50.1719
Q54.8906 44.3438 54.8906 33.0156" id="BitstreamVeraSans-Roman-6e"/>
      <path d="
M30.6094 48.3906
Q23.3906 48.3906 19.1875 42.75
Q14.9844 37.1094 14.9844 27.2969
Q14.9844 17.4844 19.1562 11.8438
Q23.3438 6.20312 30.6094 6.20312
Q37.7969 6.20312 41.9844 11.8594
Q46.1875 17.5312 46.1875 27.2969
Q46.1875 37.0156 41.9844 42.7031
Q37.7969 48.3906 30.6094 48.3906
M30.6094 56
Q42.3281 56 49.0156 48.375
Q55.7188 40.7656 55.7188 27.2969
Q55.7188 13.875 49.0156 6.21875
Q42.3281 -1.42188 30.6094 -1.42188
Q18.8438 -1.42188 12.1719 6.21875
Q5.51562 13.875 5.51562 27.2969
Q5.51562 40.7656 12.1719 48.375
Q18.8438 56 30.6094 56" id="BitstreamVeraSans-Roman-6f"/>
     </defs>
     <g transform="translate(391.4796875 636.4765625)scale(0.1 -0.1)">
      <use xlink:href="#BitstreamVeraSans-Roman-68"/>
      <use x="63.37890625" xlink:href="#BitstreamVeraSans-Roman-6f"/>
      <use x="124.560546875" xlink:href="#BitstreamVeraSans-Roman-75"/>
      <use x="187.939453125" xlink:href="#BitstreamVeraSans-Roman-72"/>
      <use x="229.052734375" xlink:href="#BitstreamVeraSans-Roman-73"/>
      <use x="281.15234375" xlink:href="#BitstreamVeraSans-Roman-20"/>
      <use x="312.939453125" xlink:href="#BitstreamVeraSans-Roman-61"/>
      <use x="374.21875" xlink:href="#BitstreamVeraSans-Roman-66"/>
      <use x="407.673828125" xlink:href="#BitstreamVeraSans-Roman-74"/>
      <use x="446.8828125" xlink:href="#BitstreamVeraSans-Roman-65"/>
      <use x="508.40625" xlink:href="#BitstreamVeraSans-Roman-72"/>
      <use x="549.51953125" xlink:href="#BitstreamVeraSans-Roman-20"/>
      <use x="581.306640625" xlink:href="#BitstreamVeraSans-Roman-6d"/>
      <use x="678.71875" xlink:href="#BitstreamVeraSans-Roman-69"/>
      <use x="706.501953125" xlink:href="#BitstreamVeraSans-Roman-64"/>
      <use x="769.978515625" xlink:href="#BitstreamVeraSans-Roman-6e"/>
      <use x="833.357421875" xlink:href="#BitstreamVeraSans-Roman-69"/>
      <use x="861.140625" xlink:href="#BitstreamVeraSans-Roman-67"/>
      <use x="924.6171875" xlink:href="#BitstreamVeraSans-Roman-68"/>
      <use x="987.99609375" xlink:href="#BitstreamVeraSans-Roman-74"/>
     </g>
    </g>
   </g>
   <g id="matplotlib.axis_2">
    <g id="ytick_1">
     <g id="line2d_81">
      <path clip-path="url(#p777c489eaf)" d="
M32.2375 610.2
L853.2 610.2" style="fill:none;stroke:#000000;stroke-dasharray:1.000000,3.000000;stroke-dashoffset:0.0;stroke-width:0.5;"/>
     </g>
     <g id="line2d_82">
      <defs>
       <path d="
M0 0
L4 0" id="md7965d1ba0" style="stroke:#000000;stroke-width:0.5;"/>
      </defs>
      <g>
       <use style="stroke:#000000;stroke-width:0.5;" x="32.2375" xlink:href="#md7965d1ba0" y="610.2"/>
      </g>
     </g>
     <g id="line2d_83">
      <defs>
       <path d="
M0 0
L-4 0" id="md9a1c1a7cd" style="stroke:#000000;stroke-width:0.5;"/>
      </defs>
      <g>
       <use style="stroke:#000000;stroke-width:0.5;" x="853.2" xlink:href="#md9a1c1a7cd" y="610.2"/>
      </g>
     </g>
     <g id="text_27">
      <!-- 0 -->
      <g transform="translate(23.1984375 612.959375)scale(0.1 -0.1)">
       <use xlink:href="#BitstreamVeraSans-Roman-30"/>
      </g>
     </g>
    </g>
    <g id="ytick_2">
     <g id="line2d_84">
      <path clip-path="url(#p777c489eaf)" d="
M32.2375 545.256
L853.2 545.256" style="fill:none;stroke:#000000;stroke-dasharray:1.000000,3.000000;stroke-dashoffset:0.0;stroke-width:0.5;"/>
     </g>
     <g id="line2d_85">
      <g>
       <use style="stroke:#000000;stroke-width:0.5;" x="32.2375" xlink:href="#md7965d1ba0" y="545.255555556"/>
      </g>
     </g>
     <g id="line2d_86">
      <g>
       <use style="stroke:#000000;stroke-width:0.5;" x="853.2" xlink:href="#md9a1c1a7cd" y="545.255555556"/>
      </g>
     </g>
     <g id="text_28">
      <!-- 20 -->
      <g transform="translate(16.909375 548.014930556)scale(0.1 -0.1)">
       <use xlink:href="#BitstreamVeraSans-Roman-32"/>
       <use x="63.623046875" xlink:href="#BitstreamVeraSans-Roman-30"/>
      </g>
     </g>
    </g>
    <g id="ytick_3">
     <g id="line2d_87">
      <path clip-path="url(#p777c489eaf)" d="
M32.2375 480.311
L853.2 480.311" style="fill:none;stroke:#000000;stroke-dasharray:1.000000,3.000000;stroke-dashoffset:0.0;stroke-width:0.5;"/>
     </g>
     <g id="line2d_88">
      <g>
       <use style="stroke:#000000;stroke-width:0.5;" x="32.2375" xlink:href="#md7965d1ba0" y="480.311111111"/>
      </g>
     </g>
     <g id="line2d_89">
      <g>
       <use style="stroke:#000000;stroke-width:0.5;" x="853.2" xlink:href="#md9a1c1a7cd" y="480.311111111"/>
      </g>
     </g>
     <g id="text_29">
      <!-- 40 -->
      <g transform="translate(16.665625 483.070486111)scale(0.1 -0.1)">
       <use xlink:href="#BitstreamVeraSans-Roman-34"/>
       <use x="63.623046875" xlink:href="#BitstreamVeraSans-Roman-30"/>
      </g>
     </g>
    </g>
    <g id="ytick_4">
     <g id="line2d_90">
      <path clip-path="url(#p777c489eaf)" d="
M32.2375 415.367
L853.2 415.367" style="fill:none;stroke:#000000;stroke-dasharray:1.000000,3.000000;stroke-dashoffset:0.0;stroke-width:0.5;"/>
     </g>
     <g id="line2d_91">
      <g>
       <use style="stroke:#000000;stroke-width:0.5;" x="32.2375" xlink:href="#md7965d1ba0" y="415.366666667"/>
      </g>
     </g>
     <g id="line2d_92">
      <g>
       <use style="stroke:#000000;stroke-width:0.5;" x="853.2" xlink:href="#md9a1c1a7cd" y="415.366666667"/>
      </g>
     </g>
     <g id="text_30">
      <!-- 60 -->
      <g transform="translate(16.875 418.126041667)scale(0.1 -0.1)">
       <use xlink:href="#BitstreamVeraSans-Roman-36"/>
       <use x="63.623046875" xlink:href="#BitstreamVeraSans-Roman-30"/>
      </g>
     </g>
    </g>
    <g id="ytick_5">
     <g id="line2d_93">
      <path clip-path="url(#p777c489eaf)" d="
M32.2375 350.422
L853.2 350.422" style="fill:none;stroke:#000000;stroke-dasharray:1.000000,3.000000;stroke-dashoffset:0.0;stroke-width:0.5;"/>
     </g>
     <g id="line2d_94">
      <g>
       <use style="stroke:#000000;stroke-width:0.5;" x="32.2375" xlink:href="#md7965d1ba0" y="350.422222222"/>
      </g>
     </g>
     <g id="line2d_95">
      <g>
       <use style="stroke:#000000;stroke-width:0.5;" x="853.2" xlink:href="#md9a1c1a7cd" y="350.422222222"/>
      </g>
     </g>
     <g id="text_31">
      <!-- 80 -->
      <g transform="translate(16.8546875 353.181597222)scale(0.1 -0.1)">
       <use xlink:href="#BitstreamVeraSans-Roman-38"/>
       <use x="63.623046875" xlink:href="#BitstreamVeraSans-Roman-30"/>
      </g>
     </g>
    </g>
    <g id="ytick_6">
     <g id="line2d_96">
      <path clip-path="url(#p777c489eaf)" d="
M32.2375 285.478
L853.2 285.478" style="fill:none;stroke:#000000;stroke-dasharray:1.000000,3.000000;stroke-dashoffset:0.0;stroke-width:0.5;"/>
     </g>
     <g id="line2d_97">
      <g>
       <use style="stroke:#000000;stroke-width:0.5;" x="32.2375" xlink:href="#md7965d1ba0" y="285.477777778"/>
      </g>
     </g>
     <g id="line2d_98">
      <g>
       <use style="stroke:#000000;stroke-width:0.5;" x="853.2" xlink:href="#md9a1c1a7cd" y="285.477777778"/>
      </g>
     </g>
     <g id="text_32">
      <!-- 100 -->
      <g transform="translate(10.9125 288.237152778)scale(0.1 -0.1)">
       <use xlink:href="#BitstreamVeraSans-Roman-31"/>
       <use x="63.623046875" xlink:href="#BitstreamVeraSans-Roman-30"/>
       <use x="127.24609375" xlink:href="#BitstreamVeraSans-Roman-30"/>
      </g>
     </g>
    </g>
    <g id="ytick_7">
     <g id="line2d_99">
      <path clip-path="url(#p777c489eaf)" d="
M32.2375 220.533
L853.2 220.533" style="fill:none;stroke:#000000;stroke-dasharray:1.000000,3.000000;stroke-dashoffset:0.0;stroke-width:0.5;"/>
     </g>
     <g id="line2d_100">
      <g>
       <use style="stroke:#000000;stroke-width:0.5;" x="32.2375" xlink:href="#md7965d1ba0" y="220.533333333"/>
      </g>
     </g>
     <g id="line2d_101">
      <g>
       <use style="stroke:#000000;stroke-width:0.5;" x="853.2" xlink:href="#md9a1c1a7cd" y="220.533333333"/>
      </g>
     </g>
     <g id="text_33">
      <!-- 120 -->
      <g transform="translate(10.9125 223.292708333)scale(0.1 -0.1)">
       <use xlink:href="#BitstreamVeraSans-Roman-31"/>
       <use x="63.623046875" xlink:href="#BitstreamVeraSans-Roman-32"/>
       <use x="127.24609375" xlink:href="#BitstreamVeraSans-Roman-30"/>
      </g>
     </g>
    </g>
    <g id="ytick_8">
     <g id="line2d_102">
      <path clip-path="url(#p777c489eaf)" d="
M32.2375 155.589
L853.2 155.589" style="fill:none;stroke:#000000;stroke-dasharray:1.000000,3.000000;stroke-dashoffset:0.0;stroke-width:0.5;"/>
     </g>
     <g id="line2d_103">
      <g>
       <use style="stroke:#000000;stroke-width:0.5;" x="32.2375" xlink:href="#md7965d1ba0" y="155.588888889"/>
      </g>
     </g>
     <g id="line2d_104">
      <g>
       <use style="stroke:#000000;stroke-width:0.5;" x="853.2" xlink:href="#md9a1c1a7cd" y="155.588888889"/>
      </g>
     </g>
     <g id="text_34">
      <!-- 140 -->
      <g transform="translate(10.9125 158.348263889)scale(0.1 -0.1)">
       <use xlink:href="#BitstreamVeraSans-Roman-31"/>
       <use x="63.623046875" xlink:href="#BitstreamVeraSans-Roman-34"/>
       <use x="127.24609375" xlink:href="#BitstreamVeraSans-Roman-30"/>
      </g>
     </g>
    </g>
    <g id="ytick_9">
     <g id="line2d_105">
      <path clip-path="url(#p777c489eaf)" d="
M32.2375 90.6444
L853.2 90.6444" style="fill:none;stroke:#000000;stroke-dasharray:1.000000,3.000000;stroke-dashoffset:0.0;stroke-width:0.5;"/>
     </g>
     <g id="line2d_106">
      <g>
       <use style="stroke:#000000;stroke-width:0.5;" x="32.2375" xlink:href="#md7965d1ba0" y="90.6444444444"/>
      </g>
     </g>
     <g id="line2d_107">
      <g>
       <use style="stroke:#000000;stroke-width:0.5;" x="853.2" xlink:href="#md9a1c1a7cd" y="90.6444444444"/>
      </g>
     </g>
     <g id="text_35">
      <!-- 160 -->
      <g transform="translate(10.9125 93.4038194444)scale(0.1 -0.1)">
       <use xlink:href="#BitstreamVeraSans-Roman-31"/>
       <use x="63.623046875" xlink:href="#BitstreamVeraSans-Roman-36"/>
       <use x="127.24609375" xlink:href="#BitstreamVeraSans-Roman-30"/>
      </g>
     </g>
    </g>
    <g id="ytick_10">
     <g id="line2d_108">
      <path clip-path="url(#p777c489eaf)" d="
M32.2375 25.7
L853.2 25.7" style="fill:none;stroke:#000000;stroke-dasharray:1.000000,3.000000;stroke-dashoffset:0.0;stroke-width:0.5;"/>
     </g>
     <g id="line2d_109">
      <g>
       <use style="stroke:#000000;stroke-width:0.5;" x="32.2375" xlink:href="#md7965d1ba0" y="25.7"/>
      </g>
     </g>
     <g id="line2d_110">
      <g>
       <use style="stroke:#000000;stroke-width:0.5;" x="853.2" xlink:href="#md9a1c1a7cd" y="25.7"/>
      </g>
     </g>
     <g id="text_36">
      <!-- 180 -->
      <g transform="translate(10.9125 28.459375)scale(0.1 -0.1)">
       <use xlink:href="#BitstreamVeraSans-Roman-31"/>
       <use x="63.623046875" xlink:href="#BitstreamVeraSans-Roman-38"/>
       <use x="127.24609375" xlink:href="#BitstreamVeraSans-Roman-30"/>
      </g>
     </g>
    </g>
   </g>
   <g id="patch_3">
    <path d="
M32.2375 610.2
L32.2375 25.7" style="fill:none;stroke:#000000;"/>
   </g>
   <g id="patch_4">
    <path d="
M32.2375 610.2
L853.2 610.2" style="fill:none;stroke:#000000;"/>
   </g>
   <g id="patch_5">
    <path d="
M853.2 610.2
L853.2 25.7" style="fill:none;stroke:#000000;"/>
   </g>
   <g id="patch_6">
    <path d="
M32.2375 25.7
L853.2 25.7" style="fill:none;stroke:#000000;"/>
   </g>
   <g id="text_37">
    <!-- Greatest non-negative components of traffic flow -->
    <defs>
     <path d="
M59.5156 10.4062
L59.5156 29.9844
L43.4062 29.9844
L43.4062 38.0938
L69.2812 38.0938
L69.2812 6.78125
Q63.5781 2.73438 56.6875 0.65625
Q49.8125 -1.42188 42 -1.42188
Q24.9062 -1.42188 15.25 8.5625
Q5.60938 18.5625 5.60938 36.375
Q5.60938 54.25 15.25 64.2344
Q24.9062 74.2188 42 74.2188
Q49.125 74.2188 55.5469 72.4531
Q61.9688 70.7031 67.3906 67.2812
L67.3906 56.7812
Q61.9219 61.4219 55.7656 63.7656
Q49.6094 66.1094 42.8281 66.1094
Q29.4375 66.1094 22.7188 58.6406
Q16.0156 51.1719 16.0156 36.375
Q16.0156 21.625 22.7188 14.1562
Q29.4375 6.6875 42.8281 6.6875
Q48.0469 6.6875 52.1406 7.59375
Q56.25 8.5 59.5156 10.4062" id="BitstreamVeraSans-Roman-47"/>
     <path d="
M4.89062 31.3906
L31.2031 31.3906
L31.2031 23.3906
L4.89062 23.3906
z
" id="BitstreamVeraSans-Roman-2d"/>
     <path d="
M9.42188 75.9844
L18.4062 75.9844
L18.4062 0
L9.42188 0
z
" id="BitstreamVeraSans-Roman-6c"/>
     <path d="
M18.1094 8.20312
L18.1094 -20.7969
L9.07812 -20.7969
L9.07812 54.6875
L18.1094 54.6875
L18.1094 46.3906
Q20.9531 51.2656 25.2656 53.625
Q29.5938 56 35.5938 56
Q45.5625 56 51.7812 48.0938
Q58.0156 40.1875 58.0156 27.2969
Q58.0156 14.4062 51.7812 6.48438
Q45.5625 -1.42188 35.5938 -1.42188
Q29.5938 -1.42188 25.2656 0.953125
Q20.9531 3.32812 18.1094 8.20312
M48.6875 27.2969
Q48.6875 37.2031 44.6094 42.8438
Q40.5312 48.4844 33.4062 48.4844
Q26.2656 48.4844 22.1875 42.8438
Q18.1094 37.2031 18.1094 27.2969
Q18.1094 17.3906 22.1875 11.75
Q26.2656 6.10938 33.4062 6.10938
Q40.5312 6.10938 44.6094 11.75
Q48.6875 17.3906 48.6875 27.2969" id="BitstreamVeraSans-Roman-70"/>
     <path d="
M4.20312 54.6875
L13.1875 54.6875
L24.4219 12.0156
L35.5938 54.6875
L46.1875 54.6875
L57.4219 12.0156
L68.6094 54.6875
L77.5938 54.6875
L63.2812 0
L52.6875 0
L40.9219 44.8281
L29.1094 0
L18.5 0
z
" id="BitstreamVeraSans-Roman-77"/>
     <path d="
M2.98438 54.6875
L12.5 54.6875
L29.5938 8.79688
L46.6875 54.6875
L56.2031 54.6875
L35.6875 0
L23.4844 0
z
" id="BitstreamVeraSans-Roman-76"/>
     <path d="
M48.7812 52.5938
L48.7812 44.1875
Q44.9688 46.2969 41.1406 47.3438
Q37.3125 48.3906 33.4062 48.3906
Q24.6562 48.3906 19.8125 42.8438
Q14.9844 37.3125 14.9844 27.2969
Q14.9844 17.2812 19.8125 11.7344
Q24.6562 6.20312 33.4062 6.20312
Q37.3125 6.20312 41.1406 7.25
Q44.9688 8.29688 48.7812 10.4062
L48.7812 2.09375
Q45.0156 0.34375 40.9844 -0.53125
Q36.9688 -1.42188 32.4219 -1.42188
Q20.0625 -1.42188 12.7812 6.34375
Q5.51562 14.1094 5.51562 27.2969
Q5.51562 40.6719 12.8594 48.3281
Q20.2188 56 33.0156 56
Q37.1562 56 41.1094 55.1406
Q45.0625 54.2969 48.7812 52.5938" id="BitstreamVeraSans-Roman-63"/>
    </defs>
    <g transform="translate(294.9846875 20.7)scale(0.12 -0.12)">
     <use xlink:href="#BitstreamVeraSans-Roman-47"/>
     <use x="77.490234375" xlink:href="#BitstreamVeraSans-Roman-72"/>
     <use x="116.353515625" xlink:href="#BitstreamVeraSans-Roman-65"/>
     <use x="177.876953125" xlink:href="#BitstreamVeraSans-Roman-61"/>
     <use x="239.15625" xlink:href="#BitstreamVeraSans-Roman-74"/>
     <use x="278.365234375" xlink:href="#BitstreamVeraSans-Roman-65"/>
     <use x="339.888671875" xlink:href="#BitstreamVeraSans-Roman-73"/>
     <use x="391.98828125" xlink:href="#BitstreamVeraSans-Roman-74"/>
     <use x="431.197265625" xlink:href="#BitstreamVeraSans-Roman-20"/>
     <use x="462.984375" xlink:href="#BitstreamVeraSans-Roman-6e"/>
     <use x="526.36328125" xlink:href="#BitstreamVeraSans-Roman-6f"/>
     <use x="587.544921875" xlink:href="#BitstreamVeraSans-Roman-6e"/>
     <use x="650.923828125" xlink:href="#BitstreamVeraSans-Roman-2d"/>
     <use x="687.0078125" xlink:href="#BitstreamVeraSans-Roman-6e"/>
     <use x="750.38671875" xlink:href="#BitstreamVeraSans-Roman-65"/>
     <use x="811.91015625" xlink:href="#BitstreamVeraSans-Roman-67"/>
     <use x="875.38671875" xlink:href="#BitstreamVeraSans-Roman-61"/>
     <use x="936.666015625" xlink:href="#BitstreamVeraSans-Roman-74"/>
     <use x="975.875" xlink:href="#BitstreamVeraSans-Roman-69"/>
     <use x="1003.658203125" xlink:href="#BitstreamVeraSans-Roman-76"/>
     <use x="1062.837890625" xlink:href="#BitstreamVeraSans-Roman-65"/>
     <use x="1124.361328125" xlink:href="#BitstreamVeraSans-Roman-20"/>
     <use x="1156.1484375" xlink:href="#BitstreamVeraSans-Roman-63"/>
     <use x="1211.12890625" xlink:href="#BitstreamVeraSans-Roman-6f"/>
     <use x="1272.310546875" xlink:href="#BitstreamVeraSans-Roman-6d"/>
     <use x="1369.72265625" xlink:href="#BitstreamVeraSans-Roman-70"/>
     <use x="1433.19921875" xlink:href="#BitstreamVeraSans-Roman-6f"/>
     <use x="1494.380859375" xlink:href="#BitstreamVeraSans-Roman-6e"/>
     <use x="1557.759765625" xlink:href="#BitstreamVeraSans-Roman-65"/>
     <use x="1619.283203125" xlink:href="#BitstreamVeraSans-Roman-6e"/>
     <use x="1682.662109375" xlink:href="#BitstreamVeraSans-Roman-74"/>
     <use x="1721.87109375" xlink:href="#BitstreamVeraSans-Roman-73"/>
     <use x="1773.970703125" xlink:href="#BitstreamVeraSans-Roman-20"/>
     <use x="1805.7578125" xlink:href="#BitstreamVeraSans-Roman-6f"/>
     <use x="1866.939453125" xlink:href="#BitstreamVeraSans-Roman-66"/>
     <use x="1902.14453125" xlink:href="#BitstreamVeraSans-Roman-20"/>
     <use x="1933.931640625" xlink:href="#BitstreamVeraSans-Roman-74"/>
     <use x="1973.140625" xlink:href="#BitstreamVeraSans-Roman-72"/>
     <use x="2014.25390625" xlink:href="#BitstreamVeraSans-Roman-61"/>
     <use x="2075.533203125" xlink:href="#BitstreamVeraSans-Roman-66"/>
     <use x="2110.73828125" xlink:href="#BitstreamVeraSans-Roman-66"/>
     <use x="2145.943359375" xlink:href="#BitstreamVeraSans-Roman-69"/>
     <use x="2173.7265625" xlink:href="#BitstreamVeraSans-Roman-63"/>
     <use x="2228.70703125" xlink:href="#BitstreamVeraSans-Roman-20"/>
     <use x="2260.494140625" xlink:href="#BitstreamVeraSans-Roman-66"/>
     <use x="2295.69921875" xlink:href="#BitstreamVeraSans-Roman-6c"/>
     <use x="2323.482421875" xlink:href="#BitstreamVeraSans-Roman-6f"/>
     <use x="2384.6640625" xlink:href="#BitstreamVeraSans-Roman-77"/>
    </g>
   </g>
   <g id="legend_1">
    <g id="patch_7">
     <path d="
M725.336 123.369
L847.2 123.369
L847.2 31.7
L725.336 31.7
L725.336 123.369
z
" style="fill:#ffffff;stroke:#000000;"/>
    </g>
    <g id="line2d_111">
     <path d="
M733.736 41.4181
L750.536 41.4181" style="fill:none;stroke:#0000ff;stroke-linecap:square;"/>
    </g>
    <g id="line2d_112"/>
    <g id="text_38">
     <!-- component 1 -->
     <g transform="translate(763.73625 45.618125)scale(0.12 -0.12)">
      <use xlink:href="#BitstreamVeraSans-Roman-63"/>
      <use x="54.98046875" xlink:href="#BitstreamVeraSans-Roman-6f"/>
      <use x="116.162109375" xlink:href="#BitstreamVeraSans-Roman-6d"/>
      <use x="213.57421875" xlink:href="#BitstreamVeraSans-Roman-70"/>
      <use x="277.05078125" xlink:href="#BitstreamVeraSans-Roman-6f"/>
      <use x="338.232421875" xlink:href="#BitstreamVeraSans-Roman-6e"/>
      <use x="401.611328125" xlink:href="#BitstreamVeraSans-Roman-65"/>
      <use x="463.134765625" xlink:href="#BitstreamVeraSans-Roman-6e"/>
      <use x="526.513671875" xlink:href="#BitstreamVeraSans-Roman-74"/>
      <use x="565.72265625" xlink:href="#BitstreamVeraSans-Roman-20"/>
      <use x="597.509765625" xlink:href="#BitstreamVeraSans-Roman-31"/>
     </g>
    </g>
    <g id="line2d_113">
     <path d="
M733.736 59.0319
L750.536 59.0319" style="fill:none;stroke:#008000;stroke-linecap:square;"/>
    </g>
    <g id="line2d_114"/>
    <g id="text_39">
     <!-- component 2 -->
     <g transform="translate(763.73625 63.231875)scale(0.12 -0.12)">
      <use xlink:href="#BitstreamVeraSans-Roman-63"/>
      <use x="54.98046875" xlink:href="#BitstreamVeraSans-Roman-6f"/>
      <use x="116.162109375" xlink:href="#BitstreamVeraSans-Roman-6d"/>
      <use x="213.57421875" xlink:href="#BitstreamVeraSans-Roman-70"/>
      <use x="277.05078125" xlink:href="#BitstreamVeraSans-Roman-6f"/>
      <use x="338.232421875" xlink:href="#BitstreamVeraSans-Roman-6e"/>
      <use x="401.611328125" xlink:href="#BitstreamVeraSans-Roman-65"/>
      <use x="463.134765625" xlink:href="#BitstreamVeraSans-Roman-6e"/>
      <use x="526.513671875" xlink:href="#BitstreamVeraSans-Roman-74"/>
      <use x="565.72265625" xlink:href="#BitstreamVeraSans-Roman-20"/>
      <use x="597.509765625" xlink:href="#BitstreamVeraSans-Roman-32"/>
     </g>
    </g>
    <g id="line2d_115">
     <path d="
M733.736 76.6456
L750.536 76.6456" style="fill:none;stroke:#ff0000;stroke-linecap:square;"/>
    </g>
    <g id="line2d_116"/>
    <g id="text_40">
     <!-- component 3 -->
     <g transform="translate(763.73625 80.845625)scale(0.12 -0.12)">
      <use xlink:href="#BitstreamVeraSans-Roman-63"/>
      <use x="54.98046875" xlink:href="#BitstreamVeraSans-Roman-6f"/>
      <use x="116.162109375" xlink:href="#BitstreamVeraSans-Roman-6d"/>
      <use x="213.57421875" xlink:href="#BitstreamVeraSans-Roman-70"/>
      <use x="277.05078125" xlink:href="#BitstreamVeraSans-Roman-6f"/>
      <use x="338.232421875" xlink:href="#BitstreamVeraSans-Roman-6e"/>
      <use x="401.611328125" xlink:href="#BitstreamVeraSans-Roman-65"/>
      <use x="463.134765625" xlink:href="#BitstreamVeraSans-Roman-6e"/>
      <use x="526.513671875" xlink:href="#BitstreamVeraSans-Roman-74"/>
      <use x="565.72265625" xlink:href="#BitstreamVeraSans-Roman-20"/>
      <use x="597.509765625" xlink:href="#BitstreamVeraSans-Roman-33"/>
     </g>
    </g>
    <g id="line2d_117">
     <path d="
M733.736 94.2594
L750.536 94.2594" style="fill:none;stroke:#00bfbf;stroke-linecap:square;"/>
    </g>
    <g id="line2d_118"/>
    <g id="text_41">
     <!-- component 4 -->
     <g transform="translate(763.73625 98.459375)scale(0.12 -0.12)">
      <use xlink:href="#BitstreamVeraSans-Roman-63"/>
      <use x="54.98046875" xlink:href="#BitstreamVeraSans-Roman-6f"/>
      <use x="116.162109375" xlink:href="#BitstreamVeraSans-Roman-6d"/>
      <use x="213.57421875" xlink:href="#BitstreamVeraSans-Roman-70"/>
      <use x="277.05078125" xlink:href="#BitstreamVeraSans-Roman-6f"/>
      <use x="338.232421875" xlink:href="#BitstreamVeraSans-Roman-6e"/>
      <use x="401.611328125" xlink:href="#BitstreamVeraSans-Roman-65"/>
      <use x="463.134765625" xlink:href="#BitstreamVeraSans-Roman-6e"/>
      <use x="526.513671875" xlink:href="#BitstreamVeraSans-Roman-74"/>
      <use x="565.72265625" xlink:href="#BitstreamVeraSans-Roman-20"/>
      <use x="597.509765625" xlink:href="#BitstreamVeraSans-Roman-34"/>
     </g>
    </g>
    <g id="line2d_119">
     <path d="
M733.736 111.873
L750.536 111.873" style="fill:none;stroke:#bf00bf;stroke-linecap:square;"/>
    </g>
    <g id="line2d_120"/>
    <g id="text_42">
     <!-- component 5 -->
     <g transform="translate(763.73625 116.073125)scale(0.12 -0.12)">
      <use xlink:href="#BitstreamVeraSans-Roman-63"/>
      <use x="54.98046875" xlink:href="#BitstreamVeraSans-Roman-6f"/>
      <use x="116.162109375" xlink:href="#BitstreamVeraSans-Roman-6d"/>
      <use x="213.57421875" xlink:href="#BitstreamVeraSans-Roman-70"/>
      <use x="277.05078125" xlink:href="#BitstreamVeraSans-Roman-6f"/>
      <use x="338.232421875" xlink:href="#BitstreamVeraSans-Roman-6e"/>
      <use x="401.611328125" xlink:href="#BitstreamVeraSans-Roman-65"/>
      <use x="463.134765625" xlink:href="#BitstreamVeraSans-Roman-6e"/>
      <use x="526.513671875" xlink:href="#BitstreamVeraSans-Roman-74"/>
      <use x="565.72265625" xlink:href="#BitstreamVeraSans-Roman-20"/>
      <use x="597.509765625" xlink:href="#BitstreamVeraSans-Roman-35"/>
     </g>
    </g>
   </g>
  </g>
 </g>
 <defs>
  <clipPath id="p777c489eaf">
   <rect height="584.5" width="820.9625" x="32.2375" y="25.7"/>
  </clipPath>
 </defs>
</svg>
