<?xml version="1.0" encoding="utf-8" standalone="no"?>
<!DOCTYPE svg PUBLIC "-//W3C//DTD SVG 1.1//EN"
  "http://www.w3.org/Graphics/SVG/1.1/DTD/svg11.dtd">
<!-- Created with matplotlib (http://matplotlib.org/) -->
<svg height="648pt" version="1.1" viewBox="0 0 864 648" width="864pt" xmlns="http://www.w3.org/2000/svg" xmlns:xlink="http://www.w3.org/1999/xlink">
 <defs>
  <style type="text/css">
*{stroke-linecap:butt;stroke-linejoin:round;}
  </style>
 </defs>
 <g id="figure_1">
  <g id="patch_1">
   <path d="
M0 648
L864 648
L864 0
L0 0
z
" style="fill:#ffffff;"/>
  </g>
  <g id="axes_1">
   <g id="patch_2">
    <path d="
M37.1453 610.2
L853.2 610.2
L853.2 25.7
L37.1453 25.7
z
" style="fill:#ffffff;"/>
   </g>
   <g id="line2d_1">
    <path clip-path="url(#p837ecdba13)" d="
M37.1453 306.148
L48.6661 306.864
L54.4265 307.374
L60.1869 307.745
L77.468 308.373
L83.2284 308.281
L94.7492 308.672
L106.27 308.253
L123.551 306.588
L135.072 305.69
L140.832 304.925
L152.353 301.553
L158.113 299.542
L163.874 297.874
L169.634 296.088
L175.395 292.11
L192.676 276.163
L198.436 272.752
L204.197 265.257
L209.957 254.861
L215.717 242.99
L221.478 232.371
L227.238 222.621
L232.998 216.222
L238.759 208.28
L244.519 202.558
L250.28 199.609
L256.04 198.619
L261.8 200.219
L267.561 202.732
L273.321 202.699
L279.082 203.541
L284.842 206.259
L290.602 210.256
L296.363 217.061
L302.123 219.181
L307.883 219.248
L319.404 219.725
L325.165 220.358
L330.925 221.33
L336.685 221.213
L342.446 220.088
L348.206 219.753
L353.967 218.437
L359.727 218.493
L365.487 218.692
L371.248 217.9
L377.008 217.697
L382.768 218.071
L388.529 218.039
L394.289 218.491
L400.05 218.442
L405.81 215.908
L411.57 215.807
L417.331 214.947
L423.091 214.595
L428.852 215.569
L434.612 213.886
L440.372 213.208
L451.893 213.573
L457.653 212.822
L463.414 212.789
L469.174 211.207
L474.935 211.026
L480.695 209.764
L486.455 208.251
L492.216 207.866
L497.976 206.788
L503.737 204.261
L509.497 204.597
L515.257 201.478
L521.018 198.208
L526.778 196.527
L532.539 192.674
L538.299 189.468
L544.059 190.585
L549.82 190.635
L555.58 191.091
L561.34 192.071
L567.101 191.537
L572.861 190.865
L578.622 192.361
L584.382 193.209
L590.142 197.244
L595.903 199.887
L601.663 203.13
L613.184 212.063
L624.705 222.163
L630.465 226.86
L636.225 230.384
L641.986 235.912
L647.746 239.421
L653.507 243.841
L659.267 247.444
L665.027 249.906
L670.788 254.122
L688.069 265.65
L693.829 266.806
L699.59 269.484
L705.35 272.518
L711.11 274.724
L716.871 276.62
L728.392 278.877
L734.152 281.439
L739.912 284.876
L745.673 287.288
L751.433 289.385
L757.194 290.95
L762.954 292.221
L768.714 294.322
L774.475 295.822
L780.235 297.631
L785.995 299.196
L803.277 302.472
L809.037 303.267
L814.797 303.48
L814.797 303.48" style="fill:none;stroke:#0000ff;stroke-linecap:square;"/>
   </g>
   <g id="line2d_2">
    <path clip-path="url(#p837ecdba13)" d="
M37.1453 299.68
L42.9057 300.602
L48.6661 301.441
L60.1869 304.672
L71.7076 306.916
L77.468 308.457
L83.2284 308.226
L88.9888 309.681
L100.51 311.52
L106.27 313.224
L117.791 315.234
L123.551 316.876
L129.311 317.581
L135.072 318.548
L140.832 321.336
L146.593 323.555
L152.353 327.045
L158.113 330.939
L163.874 333.361
L169.634 339.457
L175.395 350.797
L181.155 364.197
L186.915 382.159
L192.676 398.809
L198.436 404.223
L204.197 418.019
L209.957 442.698
L221.478 496.636
L227.238 520.205
L232.998 536.774
L238.759 552.986
L244.519 562.718
L250.28 562.776
L256.04 559.087
L267.561 533.971
L273.321 522.271
L279.082 504.583
L290.602 455.873
L296.363 427.417
L302.123 407.027
L307.883 388.845
L319.404 341.228
L325.165 322.116
L330.925 306.018
L359.727 247.721
L365.487 239.099
L371.248 234.822
L377.008 225.81
L382.768 225.954
L388.529 220.655
L394.289 220.624
L400.05 223.158
L405.81 222.372
L417.331 223.6
L423.091 223.427
L428.852 228.172
L434.612 235.179
L440.372 242.807
L446.133 244.889
L451.893 242.641
L457.653 240.796
L463.414 248.589
L469.174 252.224
L474.935 257.891
L480.695 257.76
L486.455 257.303
L492.216 258.657
L497.976 261.27
L503.737 266.731
L509.497 268.473
L515.257 275.938
L521.018 279.538
L526.778 286.72
L532.539 295.72
L538.299 303.941
L544.059 303.616
L549.82 307.288
L555.58 303.486
L561.34 308.638
L567.101 318.283
L572.861 314.966
L578.622 310.571
L584.382 309.629
L595.903 293.062
L601.663 286.328
L613.184 272.433
L618.944 261.835
L624.705 255.702
L630.465 254.427
L636.225 247.432
L641.986 247.134
L647.746 241.54
L653.507 240.537
L659.267 241.559
L670.788 246.151
L676.548 247.917
L682.309 250.798
L688.069 255.309
L693.829 261.218
L699.59 264.574
L705.35 269.758
L711.11 271.848
L716.871 276.914
L722.631 280.936
L728.392 284.595
L734.152 284.988
L739.912 286.7
L745.673 288.105
L751.433 290.373
L757.194 291.119
L762.954 291.543
L768.714 292.3
L774.475 292.355
L780.235 293.489
L791.756 297.881
L797.516 298.362
L803.277 299.021
L809.037 300.32
L814.797 301.052
L814.797 301.052" style="fill:none;stroke:#008000;stroke-linecap:square;"/>
   </g>
   <g id="line2d_3">
    <path clip-path="url(#p837ecdba13)" d="
M37.1453 306.123
L42.9057 308.182
L48.6661 307.431
L54.4265 308.672
L60.1869 307.596
L65.9472 308.229
L71.7076 310.079
L77.468 310.472
L83.2284 309.349
L88.9888 308.871
L94.7492 307.758
L100.51 306.527
L106.27 305.782
L112.03 303.711
L117.791 303.714
L129.311 302.517
L135.072 300.423
L140.832 299.015
L146.593 295.811
L152.353 293.44
L163.874 285.931
L169.634 281.09
L175.395 273.75
L181.155 261.603
L186.915 249.846
L192.676 239.602
L198.436 236.249
L204.197 237.831
L209.957 232.696
L215.717 231.852
L221.478 239.475
L227.238 248.54
L232.998 259.698
L238.759 285.397
L244.519 308.534
L250.28 325.306
L256.04 335.004
L267.561 343.582
L273.321 342.479
L279.082 329.044
L284.842 309.216
L290.602 298.97
L296.363 273.91
L302.123 258.277
L307.883 241.028
L313.644 218.968
L319.404 203.461
L325.165 196.921
L330.925 188.592
L336.685 177.739
L342.446 165.59
L348.206 163.183
L353.967 150.786
L359.727 145.731
L365.487 149.234
L371.248 149.078
L377.008 151.312
L382.768 155.031
L388.529 168.414
L394.289 183.05
L400.05 191.166
L405.81 195.891
L411.57 198.801
L417.331 207.654
L423.091 207.466
L428.852 226.852
L434.612 238.081
L440.372 242.706
L446.133 251.926
L451.893 262.043
L457.653 266.434
L463.414 278.186
L469.174 294.853
L474.935 303.145
L480.695 314.805
L486.455 318.675
L492.216 331.953
L497.976 349.264
L503.737 361.148
L509.497 377.28
L515.257 391.264
L521.018 404.611
L526.778 420.865
L532.539 453.808
L538.299 463.455
L544.059 469.147
L549.82 487.476
L555.58 488.096
L561.34 489.864
L567.101 495.751
L572.861 487.009
L578.622 482.344
L584.382 486.44
L590.142 479.959
L595.903 471.91
L601.663 458.835
L607.424 431.74
L613.184 423.027
L618.944 405.426
L624.705 394.542
L630.465 385.507
L636.225 382.168
L641.986 370.055
L647.746 368.614
L653.507 365.756
L659.267 365.888
L665.027 366.29
L670.788 360.817
L676.548 356.69
L682.309 351.649
L688.069 349.701
L693.829 352.424
L699.59 351.049
L705.35 347.457
L711.11 345.205
L716.871 341.71
L722.631 339.13
L728.392 342.606
L734.152 338.972
L739.912 333.507
L745.673 325.759
L751.433 322.809
L757.194 323.524
L762.954 321.536
L768.714 316.706
L774.475 316.795
L780.235 315.088
L785.995 312.208
L791.756 310.429
L797.516 309.997
L803.277 310.236
L809.037 310.074
L814.797 309.658
L814.797 309.658" style="fill:none;stroke:#ff0000;stroke-linecap:square;"/>
   </g>
   <g id="line2d_4">
    <path clip-path="url(#p837ecdba13)" d="
M37.1453 282.932
L42.9057 285.544
L48.6661 286.072
L54.4265 285.623
L60.1869 289.372
L71.7076 293.787
L77.468 295.555
L83.2284 295.051
L88.9888 293.092
L94.7492 294.09
L100.51 295.41
L106.27 294.128
L112.03 293.391
L117.791 291.419
L123.551 287.297
L129.311 285.599
L135.072 285.469
L140.832 284.677
L146.593 278.417
L152.353 274.692
L158.113 268.358
L163.874 261.823
L169.634 250.698
L175.395 236.507
L181.155 214.527
L186.915 194.639
L192.676 166.635
L198.436 156.041
L204.197 155.57
L209.957 151.302
L215.717 157.53
L221.478 180.637
L227.238 202.715
L232.998 222.253
L238.759 264.441
L244.519 298.479
L250.28 320.938
L256.04 345.673
L261.8 364.724
L267.561 374.947
L273.321 386.194
L279.082 393.084
L284.842 382.713
L290.602 369.383
L296.363 356.989
L302.123 355.372
L307.883 348.536
L313.644 343.665
L319.404 347.878
L325.165 346.971
L330.925 337.286
L336.685 341.858
L342.446 345.223
L348.206 354.553
L353.967 368.103
L359.727 379.692
L365.487 377.191
L371.248 387.284
L377.008 388.862
L382.768 383.904
L388.529 382.451
L394.289 378.31
L400.05 379.587
L405.81 374.858
L411.57 371.929
L417.331 365.647
L423.091 348.689
L428.852 336.275
L434.612 340.361
L440.372 336.378
L446.133 339.256
L451.893 338.869
L457.653 334.452
L463.414 337.962
L469.174 342.51
L474.935 353.035
L480.695 348.24
L486.455 344.107
L492.216 345.532
L497.976 356.079
L503.737 367.724
L509.497 380.831
L515.257 392.96
L521.018 383.392
L526.778 392.249
L532.539 409.706
L538.299 406.363
L544.059 404.281
L549.82 428.742
L555.58 423.091
L561.34 416.204
L567.101 432.704
L572.861 407.044
L578.622 398.337
L584.382 367.907
L590.142 333.021
L595.903 315.945
L601.663 286.336
L607.424 255.06
L613.184 236.299
L618.944 206.262
L624.705 196.193
L630.465 177.807
L636.225 154.022
L641.986 149.495
L647.746 158.004
L653.507 149.879
L659.267 145.937
L665.027 149.569
L670.788 150.269
L676.548 155.381
L682.309 161.231
L688.069 165.813
L693.829 167.141
L699.59 176.568
L705.35 188.698
L711.11 190.507
L716.871 189.985
L722.631 195.914
L728.392 206.77
L734.152 207.861
L739.912 220.066
L745.673 228.02
L751.433 234.418
L757.194 242.437
L762.954 246.46
L768.714 249.003
L774.475 256.888
L780.235 260.769
L785.995 264.307
L791.756 269.921
L797.516 272.067
L803.277 271.825
L809.037 275.956
L814.797 276.846
L814.797 276.846" style="fill:none;stroke:#00bfbf;stroke-linecap:square;"/>
   </g>
   <g id="line2d_5">
    <path clip-path="url(#p837ecdba13)" d="
M37.1453 326.501
L42.9057 323.041
L48.6661 320.953
L54.4265 322.875
L60.1869 323.544
L65.9472 319.465
L71.7076 321.458
L77.468 318.687
L83.2284 318.795
L88.9888 314.64
L94.7492 312.914
L100.51 314.716
L106.27 311.218
L112.03 306.764
L117.791 304.077
L123.551 300.459
L129.311 299.288
L135.072 294.937
L140.832 288.401
L146.593 282.171
L163.874 253.969
L169.634 238.681
L175.395 211.994
L186.915 143.758
L192.676 118.886
L198.436 105.037
L204.197 90.7481
L209.957 77.676
L215.717 86.6902
L221.478 125.573
L227.238 179.192
L232.998 215.251
L238.759 275.98
L244.519 353.228
L250.28 407.891
L256.04 448.826
L261.8 472.44
L267.561 489.01
L273.321 502.042
L279.082 502.532
L284.842 489.68
L290.602 478.74
L296.363 452.114
L307.883 411.59
L313.644 405.919
L319.404 396.685
L325.165 388.189
L330.925 382.658
L336.685 369.239
L342.446 359.574
L348.206 359.961
L353.967 353.532
L359.727 343.828
L365.487 338.484
L371.248 324.537
L377.008 326.536
L382.768 328.853
L388.529 321.637
L394.289 302.025
L400.05 299.578
L405.81 297.61
L411.57 302.895
L417.331 306.037
L428.852 299.218
L434.612 290.613
L440.372 280.556
L446.133 291.085
L451.893 291.022
L457.653 289.897
L463.414 277.498
L469.174 272.226
L474.935 270.726
L480.695 273.797
L486.455 273.124
L492.216 257.494
L497.976 255.757
L503.737 244.632
L509.497 234.852
L515.257 234.693
L521.018 244.217
L526.778 243.132
L532.539 230.944
L538.299 220.232
L544.059 218.482
L549.82 213.706
L555.58 227.766
L561.34 208.004
L567.101 208.038
L572.861 222.232
L578.622 243.529
L584.382 271.466
L590.142 295.813
L595.903 308.449
L601.663 337.698
L607.424 351.763
L613.184 371.048
L618.944 381.477
L624.705 391.096
L630.465 413.646
L636.225 417.309
L641.986 412.897
L647.746 404.485
L653.507 386.142
L659.267 391.101
L665.027 385.289
L670.788 383.717
L676.548 380.441
L682.309 387.897
L688.069 384.256
L693.829 381.429
L699.59 384.778
L705.35 385.181
L711.11 392.805
L716.871 392.541
L722.631 390.22
L728.392 384.521
L734.152 387.835
L739.912 379.47
L745.673 373.514
L751.433 359.171
L757.194 355.232
L768.714 351.984
L774.475 346.205
L780.235 343.717
L785.995 341.804
L791.756 339.725
L797.516 337.226
L803.277 333.595
L809.037 333.834
L814.797 334.541
L814.797 334.541" style="fill:none;stroke:#bf00bf;stroke-linecap:square;"/>
   </g>
   <g id="matplotlib.axis_1">
    <g id="xtick_1">
     <g id="line2d_6">
      <path clip-path="url(#p837ecdba13)" d="
M37.1453 610.2
L37.1453 25.7" style="fill:none;stroke:#000000;stroke-dasharray:1.000000,3.000000;stroke-dashoffset:0.0;stroke-width:0.5;"/>
     </g>
     <g id="line2d_7">
      <defs>
       <path d="
M0 0
L0 -4" id="mc7db9fdffb" style="stroke:#000000;stroke-width:0.5;"/>
      </defs>
      <g>
       <use style="stroke:#000000;stroke-width:0.5;" x="37.1453125" xlink:href="#mc7db9fdffb" y="610.2"/>
      </g>
     </g>
     <g id="line2d_8">
      <defs>
       <path d="
M0 0
L0 4" id="m5a7d422ac3" style="stroke:#000000;stroke-width:0.5;"/>
      </defs>
      <g>
       <use style="stroke:#000000;stroke-width:0.5;" x="37.1453125" xlink:href="#m5a7d422ac3" y="25.7"/>
      </g>
     </g>
     <g id="text_1">
      <!-- 0 -->
      <defs>
       <path d="
M31.7812 66.4062
Q24.1719 66.4062 20.3281 58.9062
Q16.5 51.4219 16.5 36.375
Q16.5 21.3906 20.3281 13.8906
Q24.1719 6.39062 31.7812 6.39062
Q39.4531 6.39062 43.2812 13.8906
Q47.125 21.3906 47.125 36.375
Q47.125 51.4219 43.2812 58.9062
Q39.4531 66.4062 31.7812 66.4062
M31.7812 74.2188
Q44.0469 74.2188 50.5156 64.5156
Q56.9844 54.8281 56.9844 36.375
Q56.9844 17.9688 50.5156 8.26562
Q44.0469 -1.42188 31.7812 -1.42188
Q19.5312 -1.42188 13.0625 8.26562
Q6.59375 17.9688 6.59375 36.375
Q6.59375 54.8281 13.0625 64.5156
Q19.5312 74.2188 31.7812 74.2188" id="BitstreamVeraSans-Roman-30"/>
      </defs>
      <g transform="translate(34.62578125 621.7984375)scale(0.1 -0.1)">
       <use xlink:href="#BitstreamVeraSans-Roman-30"/>
      </g>
     </g>
    </g>
    <g id="xtick_2">
     <g id="line2d_9">
      <path clip-path="url(#p837ecdba13)" d="
M69.7875 610.2
L69.7875 25.7" style="fill:none;stroke:#000000;stroke-dasharray:1.000000,3.000000;stroke-dashoffset:0.0;stroke-width:0.5;"/>
     </g>
     <g id="line2d_10">
      <g>
       <use style="stroke:#000000;stroke-width:0.5;" x="69.7875" xlink:href="#mc7db9fdffb" y="610.2"/>
      </g>
     </g>
     <g id="line2d_11">
      <g>
       <use style="stroke:#000000;stroke-width:0.5;" x="69.7875" xlink:href="#m5a7d422ac3" y="25.7"/>
      </g>
     </g>
     <g id="text_2">
      <!-- 1 -->
      <defs>
       <path d="
M12.4062 8.29688
L28.5156 8.29688
L28.5156 63.9219
L10.9844 60.4062
L10.9844 69.3906
L28.4219 72.9062
L38.2812 72.9062
L38.2812 8.29688
L54.3906 8.29688
L54.3906 0
L12.4062 0
z
" id="BitstreamVeraSans-Roman-31"/>
      </defs>
      <g transform="translate(67.6171875 621.7984375)scale(0.1 -0.1)">
       <use xlink:href="#BitstreamVeraSans-Roman-31"/>
      </g>
     </g>
    </g>
    <g id="xtick_3">
     <g id="line2d_12">
      <path clip-path="url(#p837ecdba13)" d="
M102.43 610.2
L102.43 25.7" style="fill:none;stroke:#000000;stroke-dasharray:1.000000,3.000000;stroke-dashoffset:0.0;stroke-width:0.5;"/>
     </g>
     <g id="line2d_13">
      <g>
       <use style="stroke:#000000;stroke-width:0.5;" x="102.4296875" xlink:href="#mc7db9fdffb" y="610.2"/>
      </g>
     </g>
     <g id="line2d_14">
      <g>
       <use style="stroke:#000000;stroke-width:0.5;" x="102.4296875" xlink:href="#m5a7d422ac3" y="25.7"/>
      </g>
     </g>
     <g id="text_3">
      <!-- 2 -->
      <defs>
       <path d="
M19.1875 8.29688
L53.6094 8.29688
L53.6094 0
L7.32812 0
L7.32812 8.29688
Q12.9375 14.1094 22.625 23.8906
Q32.3281 33.6875 34.8125 36.5312
Q39.5469 41.8438 41.4219 45.5312
Q43.3125 49.2188 43.3125 52.7812
Q43.3125 58.5938 39.2344 62.25
Q35.1562 65.9219 28.6094 65.9219
Q23.9688 65.9219 18.8125 64.3125
Q13.6719 62.7031 7.8125 59.4219
L7.8125 69.3906
Q13.7656 71.7812 18.9375 73
Q24.125 74.2188 28.4219 74.2188
Q39.75 74.2188 46.4844 68.5469
Q53.2188 62.8906 53.2188 53.4219
Q53.2188 48.9219 51.5312 44.8906
Q49.8594 40.875 45.4062 35.4062
Q44.1875 33.9844 37.6406 27.2188
Q31.1094 20.4531 19.1875 8.29688" id="BitstreamVeraSans-Roman-32"/>
      </defs>
      <g transform="translate(100.115625 621.7984375)scale(0.1 -0.1)">
       <use xlink:href="#BitstreamVeraSans-Roman-32"/>
      </g>
     </g>
    </g>
    <g id="xtick_4">
     <g id="line2d_15">
      <path clip-path="url(#p837ecdba13)" d="
M135.072 610.2
L135.072 25.7" style="fill:none;stroke:#000000;stroke-dasharray:1.000000,3.000000;stroke-dashoffset:0.0;stroke-width:0.5;"/>
     </g>
     <g id="line2d_16">
      <g>
       <use style="stroke:#000000;stroke-width:0.5;" x="135.071875" xlink:href="#mc7db9fdffb" y="610.2"/>
      </g>
     </g>
     <g id="line2d_17">
      <g>
       <use style="stroke:#000000;stroke-width:0.5;" x="135.071875" xlink:href="#m5a7d422ac3" y="25.7"/>
      </g>
     </g>
     <g id="text_4">
      <!-- 3 -->
      <defs>
       <path d="
M40.5781 39.3125
Q47.6562 37.7969 51.625 33
Q55.6094 28.2188 55.6094 21.1875
Q55.6094 10.4062 48.1875 4.48438
Q40.7656 -1.42188 27.0938 -1.42188
Q22.5156 -1.42188 17.6562 -0.515625
Q12.7969 0.390625 7.625 2.20312
L7.625 11.7188
Q11.7188 9.32812 16.5938 8.10938
Q21.4844 6.89062 26.8125 6.89062
Q36.0781 6.89062 40.9375 10.5469
Q45.7969 14.2031 45.7969 21.1875
Q45.7969 27.6406 41.2812 31.2656
Q36.7656 34.9062 28.7188 34.9062
L20.2188 34.9062
L20.2188 43.0156
L29.1094 43.0156
Q36.375 43.0156 40.2344 45.9219
Q44.0938 48.8281 44.0938 54.2969
Q44.0938 59.9062 40.1094 62.9062
Q36.1406 65.9219 28.7188 65.9219
Q24.6562 65.9219 20.0156 65.0312
Q15.375 64.1562 9.8125 62.3125
L9.8125 71.0938
Q15.4375 72.6562 20.3438 73.4375
Q25.25 74.2188 29.5938 74.2188
Q40.8281 74.2188 47.3594 69.1094
Q53.9062 64.0156 53.9062 55.3281
Q53.9062 49.2656 50.4375 45.0938
Q46.9688 40.9219 40.5781 39.3125" id="BitstreamVeraSans-Roman-33"/>
      </defs>
      <g transform="translate(132.67265625 621.7984375)scale(0.1 -0.1)">
       <use xlink:href="#BitstreamVeraSans-Roman-33"/>
      </g>
     </g>
    </g>
    <g id="xtick_5">
     <g id="line2d_18">
      <path clip-path="url(#p837ecdba13)" d="
M167.714 610.2
L167.714 25.7" style="fill:none;stroke:#000000;stroke-dasharray:1.000000,3.000000;stroke-dashoffset:0.0;stroke-width:0.5;"/>
     </g>
     <g id="line2d_19">
      <g>
       <use style="stroke:#000000;stroke-width:0.5;" x="167.7140625" xlink:href="#mc7db9fdffb" y="610.2"/>
      </g>
     </g>
     <g id="line2d_20">
      <g>
       <use style="stroke:#000000;stroke-width:0.5;" x="167.7140625" xlink:href="#m5a7d422ac3" y="25.7"/>
      </g>
     </g>
     <g id="text_5">
      <!-- 4 -->
      <defs>
       <path d="
M37.7969 64.3125
L12.8906 25.3906
L37.7969 25.3906
z

M35.2031 72.9062
L47.6094 72.9062
L47.6094 25.3906
L58.0156 25.3906
L58.0156 17.1875
L47.6094 17.1875
L47.6094 0
L37.7969 0
L37.7969 17.1875
L4.89062 17.1875
L4.89062 26.7031
z
" id="BitstreamVeraSans-Roman-34"/>
      </defs>
      <g transform="translate(165.0578125 621.7984375)scale(0.1 -0.1)">
       <use xlink:href="#BitstreamVeraSans-Roman-34"/>
      </g>
     </g>
    </g>
    <g id="xtick_6">
     <g id="line2d_21">
      <path clip-path="url(#p837ecdba13)" d="
M200.356 610.2
L200.356 25.7" style="fill:none;stroke:#000000;stroke-dasharray:1.000000,3.000000;stroke-dashoffset:0.0;stroke-width:0.5;"/>
     </g>
     <g id="line2d_22">
      <g>
       <use style="stroke:#000000;stroke-width:0.5;" x="200.35625" xlink:href="#mc7db9fdffb" y="610.2"/>
      </g>
     </g>
     <g id="line2d_23">
      <g>
       <use style="stroke:#000000;stroke-width:0.5;" x="200.35625" xlink:href="#m5a7d422ac3" y="25.7"/>
      </g>
     </g>
     <g id="text_6">
      <!-- 5 -->
      <defs>
       <path d="
M10.7969 72.9062
L49.5156 72.9062
L49.5156 64.5938
L19.8281 64.5938
L19.8281 46.7344
Q21.9688 47.4688 24.1094 47.8281
Q26.2656 48.1875 28.4219 48.1875
Q40.625 48.1875 47.75 41.5
Q54.8906 34.8125 54.8906 23.3906
Q54.8906 11.625 47.5625 5.09375
Q40.2344 -1.42188 26.9062 -1.42188
Q22.3125 -1.42188 17.5469 -0.640625
Q12.7969 0.140625 7.71875 1.70312
L7.71875 11.625
Q12.1094 9.23438 16.7969 8.0625
Q21.4844 6.89062 26.7031 6.89062
Q35.1562 6.89062 40.0781 11.3281
Q45.0156 15.7656 45.0156 23.3906
Q45.0156 31 40.0781 35.4375
Q35.1562 39.8906 26.7031 39.8906
Q22.75 39.8906 18.8125 39.0156
Q14.8906 38.1406 10.7969 36.2812
z
" id="BitstreamVeraSans-Roman-35"/>
      </defs>
      <g transform="translate(197.99765625 621.7984375)scale(0.1 -0.1)">
       <use xlink:href="#BitstreamVeraSans-Roman-35"/>
      </g>
     </g>
    </g>
    <g id="xtick_7">
     <g id="line2d_24">
      <path clip-path="url(#p837ecdba13)" d="
M232.998 610.2
L232.998 25.7" style="fill:none;stroke:#000000;stroke-dasharray:1.000000,3.000000;stroke-dashoffset:0.0;stroke-width:0.5;"/>
     </g>
     <g id="line2d_25">
      <g>
       <use style="stroke:#000000;stroke-width:0.5;" x="232.9984375" xlink:href="#mc7db9fdffb" y="610.2"/>
      </g>
     </g>
     <g id="line2d_26">
      <g>
       <use style="stroke:#000000;stroke-width:0.5;" x="232.9984375" xlink:href="#m5a7d422ac3" y="25.7"/>
      </g>
     </g>
     <g id="text_7">
      <!-- 6 -->
      <defs>
       <path d="
M33.0156 40.375
Q26.375 40.375 22.4844 35.8281
Q18.6094 31.2969 18.6094 23.3906
Q18.6094 15.5312 22.4844 10.9531
Q26.375 6.39062 33.0156 6.39062
Q39.6562 6.39062 43.5312 10.9531
Q47.4062 15.5312 47.4062 23.3906
Q47.4062 31.2969 43.5312 35.8281
Q39.6562 40.375 33.0156 40.375
M52.5938 71.2969
L52.5938 62.3125
Q48.875 64.0625 45.0938 64.9844
Q41.3125 65.9219 37.5938 65.9219
Q27.8281 65.9219 22.6719 59.3281
Q17.5312 52.7344 16.7969 39.4062
Q19.6719 43.6562 24.0156 45.9219
Q28.375 48.1875 33.5938 48.1875
Q44.5781 48.1875 50.9531 41.5156
Q57.3281 34.8594 57.3281 23.3906
Q57.3281 12.1562 50.6875 5.35938
Q44.0469 -1.42188 33.0156 -1.42188
Q20.3594 -1.42188 13.6719 8.26562
Q6.98438 17.9688 6.98438 36.375
Q6.98438 53.6562 15.1875 63.9375
Q23.3906 74.2188 37.2031 74.2188
Q40.9219 74.2188 44.7031 73.4844
Q48.4844 72.75 52.5938 71.2969" id="BitstreamVeraSans-Roman-36"/>
      </defs>
      <g transform="translate(230.48125 621.7984375)scale(0.1 -0.1)">
       <use xlink:href="#BitstreamVeraSans-Roman-36"/>
      </g>
     </g>
    </g>
    <g id="xtick_8">
     <g id="line2d_27">
      <path clip-path="url(#p837ecdba13)" d="
M265.641 610.2
L265.641 25.7" style="fill:none;stroke:#000000;stroke-dasharray:1.000000,3.000000;stroke-dashoffset:0.0;stroke-width:0.5;"/>
     </g>
     <g id="line2d_28">
      <g>
       <use style="stroke:#000000;stroke-width:0.5;" x="265.640625" xlink:href="#mc7db9fdffb" y="610.2"/>
      </g>
     </g>
     <g id="line2d_29">
      <g>
       <use style="stroke:#000000;stroke-width:0.5;" x="265.640625" xlink:href="#m5a7d422ac3" y="25.7"/>
      </g>
     </g>
     <g id="text_8">
      <!-- 7 -->
      <defs>
       <path d="
M8.20312 72.9062
L55.0781 72.9062
L55.0781 68.7031
L28.6094 0
L18.3125 0
L43.2188 64.5938
L8.20312 64.5938
z
" id="BitstreamVeraSans-Roman-37"/>
      </defs>
      <g transform="translate(263.296875 621.7984375)scale(0.1 -0.1)">
       <use xlink:href="#BitstreamVeraSans-Roman-37"/>
      </g>
     </g>
    </g>
    <g id="xtick_9">
     <g id="line2d_30">
      <path clip-path="url(#p837ecdba13)" d="
M298.283 610.2
L298.283 25.7" style="fill:none;stroke:#000000;stroke-dasharray:1.000000,3.000000;stroke-dashoffset:0.0;stroke-width:0.5;"/>
     </g>
     <g id="line2d_31">
      <g>
       <use style="stroke:#000000;stroke-width:0.5;" x="298.2828125" xlink:href="#mc7db9fdffb" y="610.2"/>
      </g>
     </g>
     <g id="line2d_32">
      <g>
       <use style="stroke:#000000;stroke-width:0.5;" x="298.2828125" xlink:href="#m5a7d422ac3" y="25.7"/>
      </g>
     </g>
     <g id="text_9">
      <!-- 8 -->
      <defs>
       <path d="
M31.7812 34.625
Q24.75 34.625 20.7188 30.8594
Q16.7031 27.0938 16.7031 20.5156
Q16.7031 13.9219 20.7188 10.1562
Q24.75 6.39062 31.7812 6.39062
Q38.8125 6.39062 42.8594 10.1719
Q46.9219 13.9688 46.9219 20.5156
Q46.9219 27.0938 42.8906 30.8594
Q38.875 34.625 31.7812 34.625
M21.9219 38.8125
Q15.5781 40.375 12.0312 44.7188
Q8.5 49.0781 8.5 55.3281
Q8.5 64.0625 14.7188 69.1406
Q20.9531 74.2188 31.7812 74.2188
Q42.6719 74.2188 48.875 69.1406
Q55.0781 64.0625 55.0781 55.3281
Q55.0781 49.0781 51.5312 44.7188
Q48 40.375 41.7031 38.8125
Q48.8281 37.1562 52.7969 32.3125
Q56.7812 27.4844 56.7812 20.5156
Q56.7812 9.90625 50.3125 4.23438
Q43.8438 -1.42188 31.7812 -1.42188
Q19.7344 -1.42188 13.25 4.23438
Q6.78125 9.90625 6.78125 20.5156
Q6.78125 27.4844 10.7812 32.3125
Q14.7969 37.1562 21.9219 38.8125
M18.3125 54.3906
Q18.3125 48.7344 21.8438 45.5625
Q25.3906 42.3906 31.7812 42.3906
Q38.1406 42.3906 41.7188 45.5625
Q45.3125 48.7344 45.3125 54.3906
Q45.3125 60.0625 41.7188 63.2344
Q38.1406 66.4062 31.7812 66.4062
Q25.3906 66.4062 21.8438 63.2344
Q18.3125 60.0625 18.3125 54.3906" id="BitstreamVeraSans-Roman-38"/>
      </defs>
      <g transform="translate(295.7828125 621.7984375)scale(0.1 -0.1)">
       <use xlink:href="#BitstreamVeraSans-Roman-38"/>
      </g>
     </g>
    </g>
    <g id="xtick_10">
     <g id="line2d_33">
      <path clip-path="url(#p837ecdba13)" d="
M330.925 610.2
L330.925 25.7" style="fill:none;stroke:#000000;stroke-dasharray:1.000000,3.000000;stroke-dashoffset:0.0;stroke-width:0.5;"/>
     </g>
     <g id="line2d_34">
      <g>
       <use style="stroke:#000000;stroke-width:0.5;" x="330.925" xlink:href="#mc7db9fdffb" y="610.2"/>
      </g>
     </g>
     <g id="line2d_35">
      <g>
       <use style="stroke:#000000;stroke-width:0.5;" x="330.925" xlink:href="#m5a7d422ac3" y="25.7"/>
      </g>
     </g>
     <g id="text_10">
      <!-- 9 -->
      <defs>
       <path d="
M10.9844 1.51562
L10.9844 10.5
Q14.7031 8.73438 18.5 7.8125
Q22.3125 6.89062 25.9844 6.89062
Q35.75 6.89062 40.8906 13.4531
Q46.0469 20.0156 46.7812 33.4062
Q43.9531 29.2031 39.5938 26.9531
Q35.25 24.7031 29.9844 24.7031
Q19.0469 24.7031 12.6719 31.3125
Q6.29688 37.9375 6.29688 49.4219
Q6.29688 60.6406 12.9375 67.4219
Q19.5781 74.2188 30.6094 74.2188
Q43.2656 74.2188 49.9219 64.5156
Q56.5938 54.8281 56.5938 36.375
Q56.5938 19.1406 48.4062 8.85938
Q40.2344 -1.42188 26.4219 -1.42188
Q22.7031 -1.42188 18.8906 -0.6875
Q15.0938 0.046875 10.9844 1.51562
M30.6094 32.4219
Q37.25 32.4219 41.125 36.9531
Q45.0156 41.5 45.0156 49.4219
Q45.0156 57.2812 41.125 61.8438
Q37.25 66.4062 30.6094 66.4062
Q23.9688 66.4062 20.0938 61.8438
Q16.2188 57.2812 16.2188 49.4219
Q16.2188 41.5 20.0938 36.9531
Q23.9688 32.4219 30.6094 32.4219" id="BitstreamVeraSans-Roman-39"/>
      </defs>
      <g transform="translate(328.41015625 621.7984375)scale(0.1 -0.1)">
       <use xlink:href="#BitstreamVeraSans-Roman-39"/>
      </g>
     </g>
    </g>
    <g id="xtick_11">
     <g id="line2d_36">
      <path clip-path="url(#p837ecdba13)" d="
M363.567 610.2
L363.567 25.7" style="fill:none;stroke:#000000;stroke-dasharray:1.000000,3.000000;stroke-dashoffset:0.0;stroke-width:0.5;"/>
     </g>
     <g id="line2d_37">
      <g>
       <use style="stroke:#000000;stroke-width:0.5;" x="363.5671875" xlink:href="#mc7db9fdffb" y="610.2"/>
      </g>
     </g>
     <g id="line2d_38">
      <g>
       <use style="stroke:#000000;stroke-width:0.5;" x="363.5671875" xlink:href="#m5a7d422ac3" y="25.7"/>
      </g>
     </g>
     <g id="text_11">
      <!-- 10 -->
      <g transform="translate(358.0859375 621.7984375)scale(0.1 -0.1)">
       <use xlink:href="#BitstreamVeraSans-Roman-31"/>
       <use x="63.623046875" xlink:href="#BitstreamVeraSans-Roman-30"/>
      </g>
     </g>
    </g>
    <g id="xtick_12">
     <g id="line2d_39">
      <path clip-path="url(#p837ecdba13)" d="
M396.209 610.2
L396.209 25.7" style="fill:none;stroke:#000000;stroke-dasharray:1.000000,3.000000;stroke-dashoffset:0.0;stroke-width:0.5;"/>
     </g>
     <g id="line2d_40">
      <g>
       <use style="stroke:#000000;stroke-width:0.5;" x="396.209375" xlink:href="#mc7db9fdffb" y="610.2"/>
      </g>
     </g>
     <g id="line2d_41">
      <g>
       <use style="stroke:#000000;stroke-width:0.5;" x="396.209375" xlink:href="#m5a7d422ac3" y="25.7"/>
      </g>
     </g>
     <g id="text_12">
      <!-- 11 -->
      <g transform="translate(390.8578125 621.7984375)scale(0.1 -0.1)">
       <use xlink:href="#BitstreamVeraSans-Roman-31"/>
       <use x="63.623046875" xlink:href="#BitstreamVeraSans-Roman-31"/>
      </g>
     </g>
    </g>
    <g id="xtick_13">
     <g id="line2d_42">
      <path clip-path="url(#p837ecdba13)" d="
M428.852 610.2
L428.852 25.7" style="fill:none;stroke:#000000;stroke-dasharray:1.000000,3.000000;stroke-dashoffset:0.0;stroke-width:0.5;"/>
     </g>
     <g id="line2d_43">
      <g>
       <use style="stroke:#000000;stroke-width:0.5;" x="428.8515625" xlink:href="#mc7db9fdffb" y="610.2"/>
      </g>
     </g>
     <g id="line2d_44">
      <g>
       <use style="stroke:#000000;stroke-width:0.5;" x="428.8515625" xlink:href="#m5a7d422ac3" y="25.7"/>
      </g>
     </g>
     <g id="text_13">
      <!-- 12 -->
      <g transform="translate(423.5390625 621.7984375)scale(0.1 -0.1)">
       <use xlink:href="#BitstreamVeraSans-Roman-31"/>
       <use x="63.623046875" xlink:href="#BitstreamVeraSans-Roman-32"/>
      </g>
     </g>
    </g>
    <g id="xtick_14">
     <g id="line2d_45">
      <path clip-path="url(#p837ecdba13)" d="
M461.494 610.2
L461.494 25.7" style="fill:none;stroke:#000000;stroke-dasharray:1.000000,3.000000;stroke-dashoffset:0.0;stroke-width:0.5;"/>
     </g>
     <g id="line2d_46">
      <g>
       <use style="stroke:#000000;stroke-width:0.5;" x="461.49375" xlink:href="#mc7db9fdffb" y="610.2"/>
      </g>
     </g>
     <g id="line2d_47">
      <g>
       <use style="stroke:#000000;stroke-width:0.5;" x="461.49375" xlink:href="#m5a7d422ac3" y="25.7"/>
      </g>
     </g>
     <g id="text_14">
      <!-- 13 -->
      <g transform="translate(456.08125 621.7984375)scale(0.1 -0.1)">
       <use xlink:href="#BitstreamVeraSans-Roman-31"/>
       <use x="63.623046875" xlink:href="#BitstreamVeraSans-Roman-33"/>
      </g>
     </g>
    </g>
    <g id="xtick_15">
     <g id="line2d_48">
      <path clip-path="url(#p837ecdba13)" d="
M494.136 610.2
L494.136 25.7" style="fill:none;stroke:#000000;stroke-dasharray:1.000000,3.000000;stroke-dashoffset:0.0;stroke-width:0.5;"/>
     </g>
     <g id="line2d_49">
      <g>
       <use style="stroke:#000000;stroke-width:0.5;" x="494.1359375" xlink:href="#mc7db9fdffb" y="610.2"/>
      </g>
     </g>
     <g id="line2d_50">
      <g>
       <use style="stroke:#000000;stroke-width:0.5;" x="494.1359375" xlink:href="#m5a7d422ac3" y="25.7"/>
      </g>
     </g>
     <g id="text_15">
      <!-- 14 -->
      <g transform="translate(488.603125 621.7984375)scale(0.1 -0.1)">
       <use xlink:href="#BitstreamVeraSans-Roman-31"/>
       <use x="63.623046875" xlink:href="#BitstreamVeraSans-Roman-34"/>
      </g>
     </g>
    </g>
    <g id="xtick_16">
     <g id="line2d_51">
      <path clip-path="url(#p837ecdba13)" d="
M526.778 610.2
L526.778 25.7" style="fill:none;stroke:#000000;stroke-dasharray:1.000000,3.000000;stroke-dashoffset:0.0;stroke-width:0.5;"/>
     </g>
     <g id="line2d_52">
      <g>
       <use style="stroke:#000000;stroke-width:0.5;" x="526.778125" xlink:href="#mc7db9fdffb" y="610.2"/>
      </g>
     </g>
     <g id="line2d_53">
      <g>
       <use style="stroke:#000000;stroke-width:0.5;" x="526.778125" xlink:href="#m5a7d422ac3" y="25.7"/>
      </g>
     </g>
     <g id="text_16">
      <!-- 15 -->
      <g transform="translate(521.4015625 621.7984375)scale(0.1 -0.1)">
       <use xlink:href="#BitstreamVeraSans-Roman-31"/>
       <use x="63.623046875" xlink:href="#BitstreamVeraSans-Roman-35"/>
      </g>
     </g>
    </g>
    <g id="xtick_17">
     <g id="line2d_54">
      <path clip-path="url(#p837ecdba13)" d="
M559.42 610.2
L559.42 25.7" style="fill:none;stroke:#000000;stroke-dasharray:1.000000,3.000000;stroke-dashoffset:0.0;stroke-width:0.5;"/>
     </g>
     <g id="line2d_55">
      <g>
       <use style="stroke:#000000;stroke-width:0.5;" x="559.4203125" xlink:href="#mc7db9fdffb" y="610.2"/>
      </g>
     </g>
     <g id="line2d_56">
      <g>
       <use style="stroke:#000000;stroke-width:0.5;" x="559.4203125" xlink:href="#m5a7d422ac3" y="25.7"/>
      </g>
     </g>
     <g id="text_17">
      <!-- 16 -->
      <g transform="translate(553.921875 621.7984375)scale(0.1 -0.1)">
       <use xlink:href="#BitstreamVeraSans-Roman-31"/>
       <use x="63.623046875" xlink:href="#BitstreamVeraSans-Roman-36"/>
      </g>
     </g>
    </g>
    <g id="xtick_18">
     <g id="line2d_57">
      <path clip-path="url(#p837ecdba13)" d="
M592.062 610.2
L592.062 25.7" style="fill:none;stroke:#000000;stroke-dasharray:1.000000,3.000000;stroke-dashoffset:0.0;stroke-width:0.5;"/>
     </g>
     <g id="line2d_58">
      <g>
       <use style="stroke:#000000;stroke-width:0.5;" x="592.0625" xlink:href="#mc7db9fdffb" y="610.2"/>
      </g>
     </g>
     <g id="line2d_59">
      <g>
       <use style="stroke:#000000;stroke-width:0.5;" x="592.0625" xlink:href="#m5a7d422ac3" y="25.7"/>
      </g>
     </g>
     <g id="text_18">
      <!-- 17 -->
      <g transform="translate(586.6765625 621.7984375)scale(0.1 -0.1)">
       <use xlink:href="#BitstreamVeraSans-Roman-31"/>
       <use x="63.623046875" xlink:href="#BitstreamVeraSans-Roman-37"/>
      </g>
     </g>
    </g>
    <g id="xtick_19">
     <g id="line2d_60">
      <path clip-path="url(#p837ecdba13)" d="
M624.705 610.2
L624.705 25.7" style="fill:none;stroke:#000000;stroke-dasharray:1.000000,3.000000;stroke-dashoffset:0.0;stroke-width:0.5;"/>
     </g>
     <g id="line2d_61">
      <g>
       <use style="stroke:#000000;stroke-width:0.5;" x="624.7046875" xlink:href="#mc7db9fdffb" y="610.2"/>
      </g>
     </g>
     <g id="line2d_62">
      <g>
       <use style="stroke:#000000;stroke-width:0.5;" x="624.7046875" xlink:href="#m5a7d422ac3" y="25.7"/>
      </g>
     </g>
     <g id="text_19">
      <!-- 18 -->
      <g transform="translate(619.23359375 621.7984375)scale(0.1 -0.1)">
       <use xlink:href="#BitstreamVeraSans-Roman-31"/>
       <use x="63.623046875" xlink:href="#BitstreamVeraSans-Roman-38"/>
      </g>
     </g>
    </g>
    <g id="xtick_20">
     <g id="line2d_63">
      <path clip-path="url(#p837ecdba13)" d="
M657.347 610.2
L657.347 25.7" style="fill:none;stroke:#000000;stroke-dasharray:1.000000,3.000000;stroke-dashoffset:0.0;stroke-width:0.5;"/>
     </g>
     <g id="line2d_64">
      <g>
       <use style="stroke:#000000;stroke-width:0.5;" x="657.346875" xlink:href="#mc7db9fdffb" y="610.2"/>
      </g>
     </g>
     <g id="line2d_65">
      <g>
       <use style="stroke:#000000;stroke-width:0.5;" x="657.346875" xlink:href="#m5a7d422ac3" y="25.7"/>
      </g>
     </g>
     <g id="text_20">
      <!-- 19 -->
      <g transform="translate(651.88515625 621.7984375)scale(0.1 -0.1)">
       <use xlink:href="#BitstreamVeraSans-Roman-31"/>
       <use x="63.623046875" xlink:href="#BitstreamVeraSans-Roman-39"/>
      </g>
     </g>
    </g>
    <g id="xtick_21">
     <g id="line2d_66">
      <path clip-path="url(#p837ecdba13)" d="
M689.989 610.2
L689.989 25.7" style="fill:none;stroke:#000000;stroke-dasharray:1.000000,3.000000;stroke-dashoffset:0.0;stroke-width:0.5;"/>
     </g>
     <g id="line2d_67">
      <g>
       <use style="stroke:#000000;stroke-width:0.5;" x="689.9890625" xlink:href="#mc7db9fdffb" y="610.2"/>
      </g>
     </g>
     <g id="line2d_68">
      <g>
       <use style="stroke:#000000;stroke-width:0.5;" x="689.9890625" xlink:href="#m5a7d422ac3" y="25.7"/>
      </g>
     </g>
     <g id="text_21">
      <!-- 20 -->
      <g transform="translate(684.325 621.7984375)scale(0.1 -0.1)">
       <use xlink:href="#BitstreamVeraSans-Roman-32"/>
       <use x="63.623046875" xlink:href="#BitstreamVeraSans-Roman-30"/>
      </g>
     </g>
    </g>
    <g id="xtick_22">
     <g id="line2d_69">
      <path clip-path="url(#p837ecdba13)" d="
M722.631 610.2
L722.631 25.7" style="fill:none;stroke:#000000;stroke-dasharray:1.000000,3.000000;stroke-dashoffset:0.0;stroke-width:0.5;"/>
     </g>
     <g id="line2d_70">
      <g>
       <use style="stroke:#000000;stroke-width:0.5;" x="722.63125" xlink:href="#mc7db9fdffb" y="610.2"/>
      </g>
     </g>
     <g id="line2d_71">
      <g>
       <use style="stroke:#000000;stroke-width:0.5;" x="722.63125" xlink:href="#m5a7d422ac3" y="25.7"/>
      </g>
     </g>
     <g id="text_22">
      <!-- 21 -->
      <g transform="translate(717.096875 621.7984375)scale(0.1 -0.1)">
       <use xlink:href="#BitstreamVeraSans-Roman-32"/>
       <use x="63.623046875" xlink:href="#BitstreamVeraSans-Roman-31"/>
      </g>
     </g>
    </g>
    <g id="xtick_23">
     <g id="line2d_72">
      <path clip-path="url(#p837ecdba13)" d="
M755.273 610.2
L755.273 25.7" style="fill:none;stroke:#000000;stroke-dasharray:1.000000,3.000000;stroke-dashoffset:0.0;stroke-width:0.5;"/>
     </g>
     <g id="line2d_73">
      <g>
       <use style="stroke:#000000;stroke-width:0.5;" x="755.2734375" xlink:href="#mc7db9fdffb" y="610.2"/>
      </g>
     </g>
     <g id="line2d_74">
      <g>
       <use style="stroke:#000000;stroke-width:0.5;" x="755.2734375" xlink:href="#m5a7d422ac3" y="25.7"/>
      </g>
     </g>
     <g id="text_23">
      <!-- 22 -->
      <g transform="translate(749.778125 621.7984375)scale(0.1 -0.1)">
       <use xlink:href="#BitstreamVeraSans-Roman-32"/>
       <use x="63.623046875" xlink:href="#BitstreamVeraSans-Roman-32"/>
      </g>
     </g>
    </g>
    <g id="xtick_24">
     <g id="line2d_75">
      <path clip-path="url(#p837ecdba13)" d="
M787.916 610.2
L787.916 25.7" style="fill:none;stroke:#000000;stroke-dasharray:1.000000,3.000000;stroke-dashoffset:0.0;stroke-width:0.5;"/>
     </g>
     <g id="line2d_76">
      <g>
       <use style="stroke:#000000;stroke-width:0.5;" x="787.915625" xlink:href="#mc7db9fdffb" y="610.2"/>
      </g>
     </g>
     <g id="line2d_77">
      <g>
       <use style="stroke:#000000;stroke-width:0.5;" x="787.915625" xlink:href="#m5a7d422ac3" y="25.7"/>
      </g>
     </g>
     <g id="text_24">
      <!-- 23 -->
      <g transform="translate(782.3203125 621.7984375)scale(0.1 -0.1)">
       <use xlink:href="#BitstreamVeraSans-Roman-32"/>
       <use x="63.623046875" xlink:href="#BitstreamVeraSans-Roman-33"/>
      </g>
     </g>
    </g>
    <g id="xtick_25">
     <g id="line2d_78">
      <path clip-path="url(#p837ecdba13)" d="
M820.558 610.2
L820.558 25.7" style="fill:none;stroke:#000000;stroke-dasharray:1.000000,3.000000;stroke-dashoffset:0.0;stroke-width:0.5;"/>
     </g>
     <g id="line2d_79">
      <g>
       <use style="stroke:#000000;stroke-width:0.5;" x="820.5578125" xlink:href="#mc7db9fdffb" y="610.2"/>
      </g>
     </g>
     <g id="line2d_80">
      <g>
       <use style="stroke:#000000;stroke-width:0.5;" x="820.5578125" xlink:href="#m5a7d422ac3" y="25.7"/>
      </g>
     </g>
     <g id="text_25">
      <!-- 24 -->
      <g transform="translate(814.8421875 621.7984375)scale(0.1 -0.1)">
       <use xlink:href="#BitstreamVeraSans-Roman-32"/>
       <use x="63.623046875" xlink:href="#BitstreamVeraSans-Roman-34"/>
      </g>
     </g>
    </g>
    <g id="text_26">
     <!-- hours after midnight -->
     <defs>
      <path id="BitstreamVeraSans-Roman-20"/>
      <path d="
M54.8906 33.0156
L54.8906 0
L45.9062 0
L45.9062 32.7188
Q45.9062 40.4844 42.875 44.3281
Q39.8438 48.1875 33.7969 48.1875
Q26.5156 48.1875 22.3125 43.5469
Q18.1094 38.9219 18.1094 30.9062
L18.1094 0
L9.07812 0
L9.07812 75.9844
L18.1094 75.9844
L18.1094 46.1875
Q21.3438 51.125 25.7031 53.5625
Q30.0781 56 35.7969 56
Q45.2188 56 50.0469 50.1719
Q54.8906 44.3438 54.8906 33.0156" id="BitstreamVeraSans-Roman-68"/>
      <path d="
M9.42188 54.6875
L18.4062 54.6875
L18.4062 0
L9.42188 0
z

M9.42188 75.9844
L18.4062 75.9844
L18.4062 64.5938
L9.42188 64.5938
z
" id="BitstreamVeraSans-Roman-69"/>
      <path d="
M44.2812 53.0781
L44.2812 44.5781
Q40.4844 46.5312 36.375 47.5
Q32.2812 48.4844 27.875 48.4844
Q21.1875 48.4844 17.8438 46.4375
Q14.5 44.3906 14.5 40.2812
Q14.5 37.1562 16.8906 35.375
Q19.2812 33.5938 26.5156 31.9844
L29.5938 31.2969
Q39.1562 29.25 43.1875 25.5156
Q47.2188 21.7812 47.2188 15.0938
Q47.2188 7.46875 41.1875 3.01562
Q35.1562 -1.42188 24.6094 -1.42188
Q20.2188 -1.42188 15.4531 -0.5625
Q10.6875 0.296875 5.42188 2
L5.42188 11.2812
Q10.4062 8.6875 15.2344 7.39062
Q20.0625 6.10938 24.8125 6.10938
Q31.1562 6.10938 34.5625 8.28125
Q37.9844 10.4531 37.9844 14.4062
Q37.9844 18.0625 35.5156 20.0156
Q33.0625 21.9688 24.7031 23.7812
L21.5781 24.5156
Q13.2344 26.2656 9.51562 29.9062
Q5.8125 33.5469 5.8125 39.8906
Q5.8125 47.6094 11.2812 51.7969
Q16.75 56 26.8125 56
Q31.7812 56 36.1719 55.2656
Q40.5781 54.5469 44.2812 53.0781" id="BitstreamVeraSans-Roman-73"/>
      <path d="
M56.2031 29.5938
L56.2031 25.2031
L14.8906 25.2031
Q15.4844 15.9219 20.4844 11.0625
Q25.4844 6.20312 34.4219 6.20312
Q39.5938 6.20312 44.4531 7.46875
Q49.3125 8.73438 54.1094 11.2812
L54.1094 2.78125
Q49.2656 0.734375 44.1875 -0.34375
Q39.1094 -1.42188 33.8906 -1.42188
Q20.7969 -1.42188 13.1562 6.1875
Q5.51562 13.8125 5.51562 26.8125
Q5.51562 40.2344 12.7656 48.1094
Q20.0156 56 32.3281 56
Q43.3594 56 49.7812 48.8906
Q56.2031 41.7969 56.2031 29.5938
M47.2188 32.2344
Q47.125 39.5938 43.0938 43.9844
Q39.0625 48.3906 32.4219 48.3906
Q24.9062 48.3906 20.3906 44.1406
Q15.875 39.8906 15.1875 32.1719
z
" id="BitstreamVeraSans-Roman-65"/>
      <path d="
M37.1094 75.9844
L37.1094 68.5
L28.5156 68.5
Q23.6875 68.5 21.7969 66.5469
Q19.9219 64.5938 19.9219 59.5156
L19.9219 54.6875
L34.7188 54.6875
L34.7188 47.7031
L19.9219 47.7031
L19.9219 0
L10.8906 0
L10.8906 47.7031
L2.29688 47.7031
L2.29688 54.6875
L10.8906 54.6875
L10.8906 58.5
Q10.8906 67.625 15.1406 71.7969
Q19.3906 75.9844 28.6094 75.9844
z
" id="BitstreamVeraSans-Roman-66"/>
      <path d="
M45.4062 27.9844
Q45.4062 37.75 41.375 43.1094
Q37.3594 48.4844 30.0781 48.4844
Q22.8594 48.4844 18.8281 43.1094
Q14.7969 37.75 14.7969 27.9844
Q14.7969 18.2656 18.8281 12.8906
Q22.8594 7.51562 30.0781 7.51562
Q37.3594 7.51562 41.375 12.8906
Q45.4062 18.2656 45.4062 27.9844
M54.3906 6.78125
Q54.3906 -7.17188 48.1875 -13.9844
Q42 -20.7969 29.2031 -20.7969
Q24.4688 -20.7969 20.2656 -20.0938
Q16.0625 -19.3906 12.1094 -17.9219
L12.1094 -9.1875
Q16.0625 -11.3281 19.9219 -12.3438
Q23.7812 -13.375 27.7812 -13.375
Q36.625 -13.375 41.0156 -8.76562
Q45.4062 -4.15625 45.4062 5.17188
L45.4062 9.625
Q42.625 4.78125 38.2812 2.39062
Q33.9375 0 27.875 0
Q17.8281 0 11.6719 7.65625
Q5.51562 15.3281 5.51562 27.9844
Q5.51562 40.6719 11.6719 48.3281
Q17.8281 56 27.875 56
Q33.9375 56 38.2812 53.6094
Q42.625 51.2188 45.4062 46.3906
L45.4062 54.6875
L54.3906 54.6875
z
" id="BitstreamVeraSans-Roman-67"/>
      <path d="
M34.2812 27.4844
Q23.3906 27.4844 19.1875 25
Q14.9844 22.5156 14.9844 16.5
Q14.9844 11.7188 18.1406 8.90625
Q21.2969 6.10938 26.7031 6.10938
Q34.1875 6.10938 38.7031 11.4062
Q43.2188 16.7031 43.2188 25.4844
L43.2188 27.4844
z

M52.2031 31.2031
L52.2031 0
L43.2188 0
L43.2188 8.29688
Q40.1406 3.32812 35.5469 0.953125
Q30.9531 -1.42188 24.3125 -1.42188
Q15.9219 -1.42188 10.9531 3.29688
Q6 8.01562 6 15.9219
Q6 25.1406 12.1719 29.8281
Q18.3594 34.5156 30.6094 34.5156
L43.2188 34.5156
L43.2188 35.4062
Q43.2188 41.6094 39.1406 45
Q35.0625 48.3906 27.6875 48.3906
Q23 48.3906 18.5469 47.2656
Q14.1094 46.1406 10.0156 43.8906
L10.0156 52.2031
Q14.9375 54.1094 19.5781 55.0469
Q24.2188 56 28.6094 56
Q40.4844 56 46.3438 49.8438
Q52.2031 43.7031 52.2031 31.2031" id="BitstreamVeraSans-Roman-61"/>
      <path d="
M8.5 21.5781
L8.5 54.6875
L17.4844 54.6875
L17.4844 21.9219
Q17.4844 14.1562 20.5 10.2656
Q23.5312 6.39062 29.5938 6.39062
Q36.8594 6.39062 41.0781 11.0312
Q45.3125 15.6719 45.3125 23.6875
L45.3125 54.6875
L54.2969 54.6875
L54.2969 0
L45.3125 0
L45.3125 8.40625
Q42.0469 3.42188 37.7188 1
Q33.4062 -1.42188 27.6875 -1.42188
Q18.2656 -1.42188 13.375 4.4375
Q8.5 10.2969 8.5 21.5781" id="BitstreamVeraSans-Roman-75"/>
      <path d="
M18.3125 70.2188
L18.3125 54.6875
L36.8125 54.6875
L36.8125 47.7031
L18.3125 47.7031
L18.3125 18.0156
Q18.3125 11.3281 20.1406 9.42188
Q21.9688 7.51562 27.5938 7.51562
L36.8125 7.51562
L36.8125 0
L27.5938 0
Q17.1875 0 13.2344 3.875
Q9.28125 7.76562 9.28125 18.0156
L9.28125 47.7031
L2.6875 47.7031
L2.6875 54.6875
L9.28125 54.6875
L9.28125 70.2188
z
" id="BitstreamVeraSans-Roman-74"/>
      <path d="
M45.4062 46.3906
L45.4062 75.9844
L54.3906 75.9844
L54.3906 0
L45.4062 0
L45.4062 8.20312
Q42.5781 3.32812 38.25 0.953125
Q33.9375 -1.42188 27.875 -1.42188
Q17.9688 -1.42188 11.7344 6.48438
Q5.51562 14.4062 5.51562 27.2969
Q5.51562 40.1875 11.7344 48.0938
Q17.9688 56 27.875 56
Q33.9375 56 38.25 53.625
Q42.5781 51.2656 45.4062 46.3906
M14.7969 27.2969
Q14.7969 17.3906 18.875 11.75
Q22.9531 6.10938 30.0781 6.10938
Q37.2031 6.10938 41.2969 11.75
Q45.4062 17.3906 45.4062 27.2969
Q45.4062 37.2031 41.2969 42.8438
Q37.2031 48.4844 30.0781 48.4844
Q22.9531 48.4844 18.875 42.8438
Q14.7969 37.2031 14.7969 27.2969" id="BitstreamVeraSans-Roman-64"/>
      <path d="
M41.1094 46.2969
Q39.5938 47.1719 37.8125 47.5781
Q36.0312 48 33.8906 48
Q26.2656 48 22.1875 43.0469
Q18.1094 38.0938 18.1094 28.8125
L18.1094 0
L9.07812 0
L9.07812 54.6875
L18.1094 54.6875
L18.1094 46.1875
Q20.9531 51.1719 25.4844 53.5781
Q30.0312 56 36.5312 56
Q37.4531 56 38.5781 55.875
Q39.7031 55.7656 41.0625 55.5156
z
" id="BitstreamVeraSans-Roman-72"/>
      <path d="
M52 44.1875
Q55.375 50.25 60.0625 53.125
Q64.75 56 71.0938 56
Q79.6406 56 84.2812 50.0156
Q88.9219 44.0469 88.9219 33.0156
L88.9219 0
L79.8906 0
L79.8906 32.7188
Q79.8906 40.5781 77.0938 44.375
Q74.3125 48.1875 68.6094 48.1875
Q61.625 48.1875 57.5625 43.5469
Q53.5156 38.9219 53.5156 30.9062
L53.5156 0
L44.4844 0
L44.4844 32.7188
Q44.4844 40.625 41.7031 44.4062
Q38.9219 48.1875 33.1094 48.1875
Q26.2188 48.1875 22.1562 43.5312
Q18.1094 38.875 18.1094 30.9062
L18.1094 0
L9.07812 0
L9.07812 54.6875
L18.1094 54.6875
L18.1094 46.1875
Q21.1875 51.2188 25.4844 53.6094
Q29.7812 56 35.6875 56
Q41.6562 56 45.8281 52.9688
Q50 49.9531 52 44.1875" id="BitstreamVeraSans-Roman-6d"/>
      <path d="
M54.8906 33.0156
L54.8906 0
L45.9062 0
L45.9062 32.7188
Q45.9062 40.4844 42.875 44.3281
Q39.8438 48.1875 33.7969 48.1875
Q26.5156 48.1875 22.3125 43.5469
Q18.1094 38.9219 18.1094 30.9062
L18.1094 0
L9.07812 0
L9.07812 54.6875
L18.1094 54.6875
L18.1094 46.1875
Q21.3438 51.125 25.7031 53.5625
Q30.0781 56 35.7969 56
Q45.2188 56 50.0469 50.1719
Q54.8906 44.3438 54.8906 33.0156" id="BitstreamVeraSans-Roman-6e"/>
      <path d="
M30.6094 48.3906
Q23.3906 48.3906 19.1875 42.75
Q14.9844 37.1094 14.9844 27.2969
Q14.9844 17.4844 19.1562 11.8438
Q23.3438 6.20312 30.6094 6.20312
Q37.7969 6.20312 41.9844 11.8594
Q46.1875 17.5312 46.1875 27.2969
Q46.1875 37.0156 41.9844 42.7031
Q37.7969 48.3906 30.6094 48.3906
M30.6094 56
Q42.3281 56 49.0156 48.375
Q55.7188 40.7656 55.7188 27.2969
Q55.7188 13.875 49.0156 6.21875
Q42.3281 -1.42188 30.6094 -1.42188
Q18.8438 -1.42188 12.1719 6.21875
Q5.51562 13.875 5.51562 27.2969
Q5.51562 40.7656 12.1719 48.375
Q18.8438 56 30.6094 56" id="BitstreamVeraSans-Roman-6f"/>
     </defs>
     <g transform="translate(393.93359375 636.4765625)scale(0.1 -0.1)">
      <use xlink:href="#BitstreamVeraSans-Roman-68"/>
      <use x="63.37890625" xlink:href="#BitstreamVeraSans-Roman-6f"/>
      <use x="124.560546875" xlink:href="#BitstreamVeraSans-Roman-75"/>
      <use x="187.939453125" xlink:href="#BitstreamVeraSans-Roman-72"/>
      <use x="229.052734375" xlink:href="#BitstreamVeraSans-Roman-73"/>
      <use x="281.15234375" xlink:href="#BitstreamVeraSans-Roman-20"/>
      <use x="312.939453125" xlink:href="#BitstreamVeraSans-Roman-61"/>
      <use x="374.21875" xlink:href="#BitstreamVeraSans-Roman-66"/>
      <use x="407.673828125" xlink:href="#BitstreamVeraSans-Roman-74"/>
      <use x="446.8828125" xlink:href="#BitstreamVeraSans-Roman-65"/>
      <use x="508.40625" xlink:href="#BitstreamVeraSans-Roman-72"/>
      <use x="549.51953125" xlink:href="#BitstreamVeraSans-Roman-20"/>
      <use x="581.306640625" xlink:href="#BitstreamVeraSans-Roman-6d"/>
      <use x="678.71875" xlink:href="#BitstreamVeraSans-Roman-69"/>
      <use x="706.501953125" xlink:href="#BitstreamVeraSans-Roman-64"/>
      <use x="769.978515625" xlink:href="#BitstreamVeraSans-Roman-6e"/>
      <use x="833.357421875" xlink:href="#BitstreamVeraSans-Roman-69"/>
      <use x="861.140625" xlink:href="#BitstreamVeraSans-Roman-67"/>
      <use x="924.6171875" xlink:href="#BitstreamVeraSans-Roman-68"/>
      <use x="987.99609375" xlink:href="#BitstreamVeraSans-Roman-74"/>
     </g>
    </g>
   </g>
   <g id="matplotlib.axis_2">
    <g id="ytick_1">
     <g id="line2d_81">
      <path clip-path="url(#p837ecdba13)" d="
M37.1453 610.2
L853.2 610.2" style="fill:none;stroke:#000000;stroke-dasharray:1.000000,3.000000;stroke-dashoffset:0.0;stroke-width:0.5;"/>
     </g>
     <g id="line2d_82">
      <defs>
       <path d="
M0 0
L4 0" id="md7965d1ba0" style="stroke:#000000;stroke-width:0.5;"/>
      </defs>
      <g>
       <use style="stroke:#000000;stroke-width:0.5;" x="37.1453125" xlink:href="#md7965d1ba0" y="610.2"/>
      </g>
     </g>
     <g id="line2d_83">
      <defs>
       <path d="
M0 0
L-4 0" id="md9a1c1a7cd" style="stroke:#000000;stroke-width:0.5;"/>
      </defs>
      <g>
       <use style="stroke:#000000;stroke-width:0.5;" x="853.2" xlink:href="#md9a1c1a7cd" y="610.2"/>
      </g>
     </g>
     <g id="text_27">
      <!-- −0.3 -->
      <defs>
       <path d="
M10.5938 35.5
L73.1875 35.5
L73.1875 27.2031
L10.5938 27.2031
z
" id="BitstreamVeraSans-Roman-2212"/>
       <path d="
M10.6875 12.4062
L21 12.4062
L21 0
L10.6875 0
z
" id="BitstreamVeraSans-Roman-2e"/>
      </defs>
      <g transform="translate(10.7234375 612.959375)scale(0.1 -0.1)">
       <use xlink:href="#BitstreamVeraSans-Roman-2212"/>
       <use x="83.7890625" xlink:href="#BitstreamVeraSans-Roman-30"/>
       <use x="147.412109375" xlink:href="#BitstreamVeraSans-Roman-2e"/>
       <use x="179.19921875" xlink:href="#BitstreamVeraSans-Roman-33"/>
      </g>
     </g>
    </g>
    <g id="ytick_2">
     <g id="line2d_84">
      <path clip-path="url(#p837ecdba13)" d="
M37.1453 512.783
L853.2 512.783" style="fill:none;stroke:#000000;stroke-dasharray:1.000000,3.000000;stroke-dashoffset:0.0;stroke-width:0.5;"/>
     </g>
     <g id="line2d_85">
      <g>
       <use style="stroke:#000000;stroke-width:0.5;" x="37.1453125" xlink:href="#md7965d1ba0" y="512.783333333"/>
      </g>
     </g>
     <g id="line2d_86">
      <g>
       <use style="stroke:#000000;stroke-width:0.5;" x="853.2" xlink:href="#md9a1c1a7cd" y="512.783333333"/>
      </g>
     </g>
     <g id="text_28">
      <!-- −0.2 -->
      <g transform="translate(10.9234375 515.542708333)scale(0.1 -0.1)">
       <use xlink:href="#BitstreamVeraSans-Roman-2212"/>
       <use x="83.7890625" xlink:href="#BitstreamVeraSans-Roman-30"/>
       <use x="147.412109375" xlink:href="#BitstreamVeraSans-Roman-2e"/>
       <use x="179.19921875" xlink:href="#BitstreamVeraSans-Roman-32"/>
      </g>
     </g>
    </g>
    <g id="ytick_3">
     <g id="line2d_87">
      <path clip-path="url(#p837ecdba13)" d="
M37.1453 415.367
L853.2 415.367" style="fill:none;stroke:#000000;stroke-dasharray:1.000000,3.000000;stroke-dashoffset:0.0;stroke-width:0.5;"/>
     </g>
     <g id="line2d_88">
      <g>
       <use style="stroke:#000000;stroke-width:0.5;" x="37.1453125" xlink:href="#md7965d1ba0" y="415.366666667"/>
      </g>
     </g>
     <g id="line2d_89">
      <g>
       <use style="stroke:#000000;stroke-width:0.5;" x="853.2" xlink:href="#md9a1c1a7cd" y="415.366666667"/>
      </g>
     </g>
     <g id="text_29">
      <!-- −0.1 -->
      <g transform="translate(10.8453125 418.126041667)scale(0.1 -0.1)">
       <use xlink:href="#BitstreamVeraSans-Roman-2212"/>
       <use x="83.7890625" xlink:href="#BitstreamVeraSans-Roman-30"/>
       <use x="147.412109375" xlink:href="#BitstreamVeraSans-Roman-2e"/>
       <use x="179.19921875" xlink:href="#BitstreamVeraSans-Roman-31"/>
      </g>
     </g>
    </g>
    <g id="ytick_4">
     <g id="line2d_90">
      <path clip-path="url(#p837ecdba13)" d="
M37.1453 317.95
L853.2 317.95" style="fill:none;stroke:#000000;stroke-dasharray:1.000000,3.000000;stroke-dashoffset:0.0;stroke-width:0.5;"/>
     </g>
     <g id="line2d_91">
      <g>
       <use style="stroke:#000000;stroke-width:0.5;" x="37.1453125" xlink:href="#md7965d1ba0" y="317.95"/>
      </g>
     </g>
     <g id="line2d_92">
      <g>
       <use style="stroke:#000000;stroke-width:0.5;" x="853.2" xlink:href="#md9a1c1a7cd" y="317.95"/>
      </g>
     </g>
     <g id="text_30">
      <!-- 0.0 -->
      <g transform="translate(18.565625 320.709375)scale(0.1 -0.1)">
       <use xlink:href="#BitstreamVeraSans-Roman-30"/>
       <use x="63.623046875" xlink:href="#BitstreamVeraSans-Roman-2e"/>
       <use x="95.41015625" xlink:href="#BitstreamVeraSans-Roman-30"/>
      </g>
     </g>
    </g>
    <g id="ytick_5">
     <g id="line2d_93">
      <path clip-path="url(#p837ecdba13)" d="
M37.1453 220.533
L853.2 220.533" style="fill:none;stroke:#000000;stroke-dasharray:1.000000,3.000000;stroke-dashoffset:0.0;stroke-width:0.5;"/>
     </g>
     <g id="line2d_94">
      <g>
       <use style="stroke:#000000;stroke-width:0.5;" x="37.1453125" xlink:href="#md7965d1ba0" y="220.533333333"/>
      </g>
     </g>
     <g id="line2d_95">
      <g>
       <use style="stroke:#000000;stroke-width:0.5;" x="853.2" xlink:href="#md9a1c1a7cd" y="220.533333333"/>
      </g>
     </g>
     <g id="text_31">
      <!-- 0.1 -->
      <g transform="translate(18.825 223.292708333)scale(0.1 -0.1)">
       <use xlink:href="#BitstreamVeraSans-Roman-30"/>
       <use x="63.623046875" xlink:href="#BitstreamVeraSans-Roman-2e"/>
       <use x="95.41015625" xlink:href="#BitstreamVeraSans-Roman-31"/>
      </g>
     </g>
    </g>
    <g id="ytick_6">
     <g id="line2d_96">
      <path clip-path="url(#p837ecdba13)" d="
M37.1453 123.117
L853.2 123.117" style="fill:none;stroke:#000000;stroke-dasharray:1.000000,3.000000;stroke-dashoffset:0.0;stroke-width:0.5;"/>
     </g>
     <g id="line2d_97">
      <g>
       <use style="stroke:#000000;stroke-width:0.5;" x="37.1453125" xlink:href="#md7965d1ba0" y="123.116666667"/>
      </g>
     </g>
     <g id="line2d_98">
      <g>
       <use style="stroke:#000000;stroke-width:0.5;" x="853.2" xlink:href="#md9a1c1a7cd" y="123.116666667"/>
      </g>
     </g>
     <g id="text_32">
      <!-- 0.2 -->
      <g transform="translate(18.903125 125.876041667)scale(0.1 -0.1)">
       <use xlink:href="#BitstreamVeraSans-Roman-30"/>
       <use x="63.623046875" xlink:href="#BitstreamVeraSans-Roman-2e"/>
       <use x="95.41015625" xlink:href="#BitstreamVeraSans-Roman-32"/>
      </g>
     </g>
    </g>
    <g id="ytick_7">
     <g id="line2d_99">
      <path clip-path="url(#p837ecdba13)" d="
M37.1453 25.7
L853.2 25.7" style="fill:none;stroke:#000000;stroke-dasharray:1.000000,3.000000;stroke-dashoffset:0.0;stroke-width:0.5;"/>
     </g>
     <g id="line2d_100">
      <g>
       <use style="stroke:#000000;stroke-width:0.5;" x="37.1453125" xlink:href="#md7965d1ba0" y="25.7"/>
      </g>
     </g>
     <g id="line2d_101">
      <g>
       <use style="stroke:#000000;stroke-width:0.5;" x="853.2" xlink:href="#md9a1c1a7cd" y="25.7"/>
      </g>
     </g>
     <g id="text_33">
      <!-- 0.3 -->
      <g transform="translate(18.703125 28.459375)scale(0.1 -0.1)">
       <use xlink:href="#BitstreamVeraSans-Roman-30"/>
       <use x="63.623046875" xlink:href="#BitstreamVeraSans-Roman-2e"/>
       <use x="95.41015625" xlink:href="#BitstreamVeraSans-Roman-33"/>
      </g>
     </g>
    </g>
   </g>
   <g id="patch_3">
    <path d="
M37.1453 610.2
L37.1453 25.7" style="fill:none;stroke:#000000;"/>
   </g>
   <g id="patch_4">
    <path d="
M37.1453 610.2
L853.2 610.2" style="fill:none;stroke:#000000;"/>
   </g>
   <g id="patch_5">
    <path d="
M853.2 610.2
L853.2 25.7" style="fill:none;stroke:#000000;"/>
   </g>
   <g id="patch_6">
    <path d="
M37.1453 25.7
L853.2 25.7" style="fill:none;stroke:#000000;"/>
   </g>
   <g id="text_34">
    <!-- PCA components of traffic flow -->
    <defs>
     <path d="
M19.6719 64.7969
L19.6719 37.4062
L32.0781 37.4062
Q38.9688 37.4062 42.7188 40.9688
Q46.4844 44.5312 46.4844 51.125
Q46.4844 57.6719 42.7188 61.2344
Q38.9688 64.7969 32.0781 64.7969
z

M9.8125 72.9062
L32.0781 72.9062
Q44.3438 72.9062 50.6094 67.3594
Q56.8906 61.8125 56.8906 51.125
Q56.8906 40.3281 50.6094 34.8125
Q44.3438 29.2969 32.0781 29.2969
L19.6719 29.2969
L19.6719 0
L9.8125 0
z
" id="BitstreamVeraSans-Roman-50"/>
     <path d="
M9.42188 75.9844
L18.4062 75.9844
L18.4062 0
L9.42188 0
z
" id="BitstreamVeraSans-Roman-6c"/>
     <path d="
M34.1875 63.1875
L20.7969 26.9062
L47.6094 26.9062
z

M28.6094 72.9062
L39.7969 72.9062
L67.5781 0
L57.3281 0
L50.6875 18.7031
L17.8281 18.7031
L11.1875 0
L0.78125 0
z
" id="BitstreamVeraSans-Roman-41"/>
     <path d="
M4.20312 54.6875
L13.1875 54.6875
L24.4219 12.0156
L35.5938 54.6875
L46.1875 54.6875
L57.4219 12.0156
L68.6094 54.6875
L77.5938 54.6875
L63.2812 0
L52.6875 0
L40.9219 44.8281
L29.1094 0
L18.5 0
z
" id="BitstreamVeraSans-Roman-77"/>
     <path d="
M18.1094 8.20312
L18.1094 -20.7969
L9.07812 -20.7969
L9.07812 54.6875
L18.1094 54.6875
L18.1094 46.3906
Q20.9531 51.2656 25.2656 53.625
Q29.5938 56 35.5938 56
Q45.5625 56 51.7812 48.0938
Q58.0156 40.1875 58.0156 27.2969
Q58.0156 14.4062 51.7812 6.48438
Q45.5625 -1.42188 35.5938 -1.42188
Q29.5938 -1.42188 25.2656 0.953125
Q20.9531 3.32812 18.1094 8.20312
M48.6875 27.2969
Q48.6875 37.2031 44.6094 42.8438
Q40.5312 48.4844 33.4062 48.4844
Q26.2656 48.4844 22.1875 42.8438
Q18.1094 37.2031 18.1094 27.2969
Q18.1094 17.3906 22.1875 11.75
Q26.2656 6.10938 33.4062 6.10938
Q40.5312 6.10938 44.6094 11.75
Q48.6875 17.3906 48.6875 27.2969" id="BitstreamVeraSans-Roman-70"/>
     <path d="
M64.4062 67.2812
L64.4062 56.8906
Q59.4219 61.5312 53.7812 63.8125
Q48.1406 66.1094 41.7969 66.1094
Q29.2969 66.1094 22.6562 58.4688
Q16.0156 50.8281 16.0156 36.375
Q16.0156 21.9688 22.6562 14.3281
Q29.2969 6.6875 41.7969 6.6875
Q48.1406 6.6875 53.7812 8.98438
Q59.4219 11.2812 64.4062 15.9219
L64.4062 5.60938
Q59.2344 2.09375 53.4375 0.328125
Q47.6562 -1.42188 41.2188 -1.42188
Q24.6562 -1.42188 15.125 8.70312
Q5.60938 18.8438 5.60938 36.375
Q5.60938 53.9531 15.125 64.0781
Q24.6562 74.2188 41.2188 74.2188
Q47.75 74.2188 53.5312 72.4844
Q59.3281 70.75 64.4062 67.2812" id="BitstreamVeraSans-Roman-43"/>
     <path d="
M48.7812 52.5938
L48.7812 44.1875
Q44.9688 46.2969 41.1406 47.3438
Q37.3125 48.3906 33.4062 48.3906
Q24.6562 48.3906 19.8125 42.8438
Q14.9844 37.3125 14.9844 27.2969
Q14.9844 17.2812 19.8125 11.7344
Q24.6562 6.20312 33.4062 6.20312
Q37.3125 6.20312 41.1406 7.25
Q44.9688 8.29688 48.7812 10.4062
L48.7812 2.09375
Q45.0156 0.34375 40.9844 -0.53125
Q36.9688 -1.42188 32.4219 -1.42188
Q20.0625 -1.42188 12.7812 6.34375
Q5.51562 14.1094 5.51562 27.2969
Q5.51562 40.6719 12.8594 48.3281
Q20.2188 56 33.0156 56
Q37.1562 56 41.1094 55.1406
Q45.0625 54.2969 48.7812 52.5938" id="BitstreamVeraSans-Roman-63"/>
    </defs>
    <g transform="translate(352.98828125 20.7)scale(0.12 -0.12)">
     <use xlink:href="#BitstreamVeraSans-Roman-50"/>
     <use x="60.302734375" xlink:href="#BitstreamVeraSans-Roman-43"/>
     <use x="130.126953125" xlink:href="#BitstreamVeraSans-Roman-41"/>
     <use x="198.53515625" xlink:href="#BitstreamVeraSans-Roman-20"/>
     <use x="230.322265625" xlink:href="#BitstreamVeraSans-Roman-63"/>
     <use x="285.302734375" xlink:href="#BitstreamVeraSans-Roman-6f"/>
     <use x="346.484375" xlink:href="#BitstreamVeraSans-Roman-6d"/>
     <use x="443.896484375" xlink:href="#BitstreamVeraSans-Roman-70"/>
     <use x="507.373046875" xlink:href="#BitstreamVeraSans-Roman-6f"/>
     <use x="568.5546875" xlink:href="#BitstreamVeraSans-Roman-6e"/>
     <use x="631.93359375" xlink:href="#BitstreamVeraSans-Roman-65"/>
     <use x="693.45703125" xlink:href="#BitstreamVeraSans-Roman-6e"/>
     <use x="756.8359375" xlink:href="#BitstreamVeraSans-Roman-74"/>
     <use x="796.044921875" xlink:href="#BitstreamVeraSans-Roman-73"/>
     <use x="848.14453125" xlink:href="#BitstreamVeraSans-Roman-20"/>
     <use x="879.931640625" xlink:href="#BitstreamVeraSans-Roman-6f"/>
     <use x="941.11328125" xlink:href="#BitstreamVeraSans-Roman-66"/>
     <use x="976.318359375" xlink:href="#BitstreamVeraSans-Roman-20"/>
     <use x="1008.10546875" xlink:href="#BitstreamVeraSans-Roman-74"/>
     <use x="1047.314453125" xlink:href="#BitstreamVeraSans-Roman-72"/>
     <use x="1088.427734375" xlink:href="#BitstreamVeraSans-Roman-61"/>
     <use x="1149.70703125" xlink:href="#BitstreamVeraSans-Roman-66"/>
     <use x="1184.912109375" xlink:href="#BitstreamVeraSans-Roman-66"/>
     <use x="1220.1171875" xlink:href="#BitstreamVeraSans-Roman-69"/>
     <use x="1247.900390625" xlink:href="#BitstreamVeraSans-Roman-63"/>
     <use x="1302.880859375" xlink:href="#BitstreamVeraSans-Roman-20"/>
     <use x="1334.66796875" xlink:href="#BitstreamVeraSans-Roman-66"/>
     <use x="1369.873046875" xlink:href="#BitstreamVeraSans-Roman-6c"/>
     <use x="1397.65625" xlink:href="#BitstreamVeraSans-Roman-6f"/>
     <use x="1458.837890625" xlink:href="#BitstreamVeraSans-Roman-77"/>
    </g>
   </g>
   <g id="legend_1">
    <g id="patch_7">
     <path d="
M725.336 123.369
L847.2 123.369
L847.2 31.7
L725.336 31.7
L725.336 123.369
z
" style="fill:#ffffff;stroke:#000000;"/>
    </g>
    <g id="line2d_102">
     <path d="
M733.736 41.4181
L750.536 41.4181" style="fill:none;stroke:#0000ff;stroke-linecap:square;"/>
    </g>
    <g id="line2d_103"/>
    <g id="text_35">
     <!-- component 1 -->
     <g transform="translate(763.73625 45.618125)scale(0.12 -0.12)">
      <use xlink:href="#BitstreamVeraSans-Roman-63"/>
      <use x="54.98046875" xlink:href="#BitstreamVeraSans-Roman-6f"/>
      <use x="116.162109375" xlink:href="#BitstreamVeraSans-Roman-6d"/>
      <use x="213.57421875" xlink:href="#BitstreamVeraSans-Roman-70"/>
      <use x="277.05078125" xlink:href="#BitstreamVeraSans-Roman-6f"/>
      <use x="338.232421875" xlink:href="#BitstreamVeraSans-Roman-6e"/>
      <use x="401.611328125" xlink:href="#BitstreamVeraSans-Roman-65"/>
      <use x="463.134765625" xlink:href="#BitstreamVeraSans-Roman-6e"/>
      <use x="526.513671875" xlink:href="#BitstreamVeraSans-Roman-74"/>
      <use x="565.72265625" xlink:href="#BitstreamVeraSans-Roman-20"/>
      <use x="597.509765625" xlink:href="#BitstreamVeraSans-Roman-31"/>
     </g>
    </g>
    <g id="line2d_104">
     <path d="
M733.736 59.0319
L750.536 59.0319" style="fill:none;stroke:#008000;stroke-linecap:square;"/>
    </g>
    <g id="line2d_105"/>
    <g id="text_36">
     <!-- component 2 -->
     <g transform="translate(763.73625 63.231875)scale(0.12 -0.12)">
      <use xlink:href="#BitstreamVeraSans-Roman-63"/>
      <use x="54.98046875" xlink:href="#BitstreamVeraSans-Roman-6f"/>
      <use x="116.162109375" xlink:href="#BitstreamVeraSans-Roman-6d"/>
      <use x="213.57421875" xlink:href="#BitstreamVeraSans-Roman-70"/>
      <use x="277.05078125" xlink:href="#BitstreamVeraSans-Roman-6f"/>
      <use x="338.232421875" xlink:href="#BitstreamVeraSans-Roman-6e"/>
      <use x="401.611328125" xlink:href="#BitstreamVeraSans-Roman-65"/>
      <use x="463.134765625" xlink:href="#BitstreamVeraSans-Roman-6e"/>
      <use x="526.513671875" xlink:href="#BitstreamVeraSans-Roman-74"/>
      <use x="565.72265625" xlink:href="#BitstreamVeraSans-Roman-20"/>
      <use x="597.509765625" xlink:href="#BitstreamVeraSans-Roman-32"/>
     </g>
    </g>
    <g id="line2d_106">
     <path d="
M733.736 76.6456
L750.536 76.6456" style="fill:none;stroke:#ff0000;stroke-linecap:square;"/>
    </g>
    <g id="line2d_107"/>
    <g id="text_37">
     <!-- component 3 -->
     <g transform="translate(763.73625 80.845625)scale(0.12 -0.12)">
      <use xlink:href="#BitstreamVeraSans-Roman-63"/>
      <use x="54.98046875" xlink:href="#BitstreamVeraSans-Roman-6f"/>
      <use x="116.162109375" xlink:href="#BitstreamVeraSans-Roman-6d"/>
      <use x="213.57421875" xlink:href="#BitstreamVeraSans-Roman-70"/>
      <use x="277.05078125" xlink:href="#BitstreamVeraSans-Roman-6f"/>
      <use x="338.232421875" xlink:href="#BitstreamVeraSans-Roman-6e"/>
      <use x="401.611328125" xlink:href="#BitstreamVeraSans-Roman-65"/>
      <use x="463.134765625" xlink:href="#BitstreamVeraSans-Roman-6e"/>
      <use x="526.513671875" xlink:href="#BitstreamVeraSans-Roman-74"/>
      <use x="565.72265625" xlink:href="#BitstreamVeraSans-Roman-20"/>
      <use x="597.509765625" xlink:href="#BitstreamVeraSans-Roman-33"/>
     </g>
    </g>
    <g id="line2d_108">
     <path d="
M733.736 94.2594
L750.536 94.2594" style="fill:none;stroke:#00bfbf;stroke-linecap:square;"/>
    </g>
    <g id="line2d_109"/>
    <g id="text_38">
     <!-- component 4 -->
     <g transform="translate(763.73625 98.459375)scale(0.12 -0.12)">
      <use xlink:href="#BitstreamVeraSans-Roman-63"/>
      <use x="54.98046875" xlink:href="#BitstreamVeraSans-Roman-6f"/>
      <use x="116.162109375" xlink:href="#BitstreamVeraSans-Roman-6d"/>
      <use x="213.57421875" xlink:href="#BitstreamVeraSans-Roman-70"/>
      <use x="277.05078125" xlink:href="#BitstreamVeraSans-Roman-6f"/>
      <use x="338.232421875" xlink:href="#BitstreamVeraSans-Roman-6e"/>
      <use x="401.611328125" xlink:href="#BitstreamVeraSans-Roman-65"/>
      <use x="463.134765625" xlink:href="#BitstreamVeraSans-Roman-6e"/>
      <use x="526.513671875" xlink:href="#BitstreamVeraSans-Roman-74"/>
      <use x="565.72265625" xlink:href="#BitstreamVeraSans-Roman-20"/>
      <use x="597.509765625" xlink:href="#BitstreamVeraSans-Roman-34"/>
     </g>
    </g>
    <g id="line2d_110">
     <path d="
M733.736 111.873
L750.536 111.873" style="fill:none;stroke:#bf00bf;stroke-linecap:square;"/>
    </g>
    <g id="line2d_111"/>
    <g id="text_39">
     <!-- component 5 -->
     <g transform="translate(763.73625 116.073125)scale(0.12 -0.12)">
      <use xlink:href="#BitstreamVeraSans-Roman-63"/>
      <use x="54.98046875" xlink:href="#BitstreamVeraSans-Roman-6f"/>
      <use x="116.162109375" xlink:href="#BitstreamVeraSans-Roman-6d"/>
      <use x="213.57421875" xlink:href="#BitstreamVeraSans-Roman-70"/>
      <use x="277.05078125" xlink:href="#BitstreamVeraSans-Roman-6f"/>
      <use x="338.232421875" xlink:href="#BitstreamVeraSans-Roman-6e"/>
      <use x="401.611328125" xlink:href="#BitstreamVeraSans-Roman-65"/>
      <use x="463.134765625" xlink:href="#BitstreamVeraSans-Roman-6e"/>
      <use x="526.513671875" xlink:href="#BitstreamVeraSans-Roman-74"/>
      <use x="565.72265625" xlink:href="#BitstreamVeraSans-Roman-20"/>
      <use x="597.509765625" xlink:href="#BitstreamVeraSans-Roman-35"/>
     </g>
    </g>
   </g>
  </g>
 </g>
 <defs>
  <clipPath id="p837ecdba13">
   <rect height="584.5" width="816.0546875" x="37.1453125" y="25.7"/>
  </clipPath>
 </defs>
</svg>
